<?xml version="1.0" encoding="UTF-8"?>
<!DOCTYPE svg PUBLIC "-//W3C//DTD SVG 1.1//EN" "http://www.w3.org/Graphics/SVG/1.1/DTD/svg11.dtd">
<!-- Creator: CorelDRAW X7 -->
<svg xmlns="http://www.w3.org/2000/svg" xml:space="preserve" width="44px" height="55px" version="1.1" style="shape-rendering:geometricPrecision; text-rendering:geometricPrecision; image-rendering:optimizeQuality; fill-rule:evenodd; clip-rule:evenodd"
viewBox="0 0 44 55"
 xmlns:xlink="http://www.w3.org/1999/xlink">
 <defs>
  <style type="text/css">
   <![CDATA[
    .fil0 {fill:#FEFEFE;fill-rule:nonzero}
   ]]>
  </style>
 </defs>
 <g id="Слой_x0020_1">
  <metadata id="CorelCorpID_0Corel-Layer"/>
  <g id="_1188438512">
   <path class="fil0" d="M2043 632c0,0 1,-1 1,-1l0 -8 33 0 0 8c0,0 0,1 0,1 1,0 1,-1 1,-1l0 -9c0,0 0,0 -1,0l-34 0c-1,0 -1,0 -1,0l0 9c0,0 0,1 1,1z"/>
   <path class="fil0" d="M2078 654l0 -11c0,0 0,-1 -1,-1 0,0 0,1 0,1l0 11 -3 0 0 -13 7 0c0,0 1,-1 1,-1l0 -6c0,0 -1,-1 -1,-1l-7 0 0 -2c0,-1 0,-1 -1,-1l-26 0c0,0 -1,0 -1,1l0 2 -7 0c0,0 0,1 0,1l0 6c0,0 0,1 0,1l7 0 0 13 -2 0 0 -11c0,0 -1,-1 -1,-1 -1,0 -1,1 -1,1l0 11c-2,0 -4,2 -4,4l0 9c0,0 0,1 1,1l0 0 0 5c0,0 1,1 1,1l7 0c1,0 1,-1 1,-1l0 -3c0,0 0,0 -1,0 0,0 -1,0 -1,0l0 2 -5 0 0 -4 38 0 0 4 -5 0 0 -2c0,0 0,0 -1,0 0,0 -1,0 -1,0l0 3c0,0 1,1 1,1l7 0c1,0 1,-1 1,-1l0 -5 0 0c1,0 1,-1 1,-1l0 -9c0,-2 -2,-4 -4,-4zm-1 1c2,0 3,2 3,3l0 4 -6 0 0 -7 3 0zm3 11l-40 0 0 -3 40 0 0 3zm-32 -25l24 0 0 21 -24 0 0 -21zm32 -2l-2 0 0 -4 2 0 0 4zm-3 -4l0 4 -3 0 0 -4 3 0zm-5 4l-11 0 0 -7 11 0 0 7zm-24 -7l11 0 0 7 -11 0 0 -7zm-2 7l-2 0 0 -4 2 0 0 4zm-6 -4l2 0 0 4 -2 0 0 -4zm3 20l3 0 0 7 -6 0 0 -4c0,-1 1,-3 3,-3z"/>
   <path class="fil0" d="M2050 650l20 0c0,0 1,0 1,-1 0,-2 -3,-4 -5,-4l-12 0c-2,0 -4,2 -4,4 0,1 0,1 0,1zm4 -4l12 0c1,0 2,1 3,3l-18 0c1,-2 2,-3 3,-3z"/>
   <path class="fil0" d="M2070 652l-20 0c0,0 0,0 0,1 0,0 0,0 0,0l20 0c0,0 1,0 1,0 0,-1 -1,-1 -1,-1z"/>
   <path class="fil0" d="M2070 655l-20 0c0,0 0,1 0,1 0,0 0,1 0,1l20 0c0,0 1,-1 1,-1 0,0 -1,-1 -1,-1z"/>
   <path class="fil0" d="M2070 658l-20 0c0,0 0,1 0,1 0,1 0,1 0,1l20 0c0,0 1,0 1,-1 0,0 -1,-1 -1,-1z"/>
  </g>
  <g id="_1188435728">
   <path class="fil0" d="M5 12c0,0 1,-1 1,-1l0 -8 33 0 0 8c0,0 0,1 1,1 0,0 0,-1 0,-1l0 -9c0,0 0,-1 0,-1l-35 0c-1,0 -1,1 -1,1l0 9c0,0 0,1 1,1z"/>
   <path class="fil0" d="M40 33l0 -10c0,-1 0,-1 0,-1 -1,0 -1,0 -1,1l0 10 -3 0 0 -13 7 0c0,0 1,0 1,0l0 -6c0,0 -1,-1 -1,-1l-7 0 0 -2c0,-1 0,-1 -1,-1l-26 0c0,0 -1,0 -1,1l0 2 -6 0c-1,0 -1,1 -1,1l0 6c0,0 0,0 1,0l6 0 0 13 -2 0 0 -10c0,-1 -1,-1 -1,-1 -1,0 -1,0 -1,1l0 10c-2,1 -4,3 -4,5l0 9c0,0 1,1 1,1l0 0 0 5c0,0 1,0 1,0l7 0c1,0 1,0 1,0l0 -3c0,0 0,-1 -1,-1 0,0 -1,1 -1,1l0 2 -5 0 0 -4 38 0 0 4 -5 0 0 -2c0,0 0,-1 -1,-1 0,0 -1,1 -1,1l0 3c0,0 1,0 1,0l7 0c1,0 1,0 1,0l0 -5 0 0c1,0 1,-1 1,-1l0 -9c0,-2 -1,-4 -4,-5zm0 2c1,0 3,1 3,3l0 4 -7 0 0 -7 4 0zm3 11l-41 0 0 -3 41 0 0 3zm-33 -26l24 0 0 22 -24 0 0 -22zm32 -1l-2 0 0 -4 2 0 0 4zm-3 -4l0 4 -3 0 0 -4 3 0zm-5 4l-11 0 0 -7 11 0 0 7zm-24 -7l11 0 0 7 -11 0 0 -7zm-2 7l-2 0 0 -4 2 0 0 4zm-6 -4l2 0 0 4 -2 0 0 -4zm3 20l3 0 0 7 -6 0 0 -4c0,-2 1,-3 3,-3z"/>
   <path class="fil0" d="M13 30l19 0c0,0 1,0 1,-1 0,-2 -2,-4 -5,-4l-12 0c-2,0 -4,2 -4,4 0,1 0,1 1,1zm3 -4l12 0c1,0 3,1 3,2l-17 0c0,-1 1,-2 2,-2z"/>
   <path class="fil0" d="M32 32l-19 0c-1,0 -1,0 -1,1 0,0 0,0 1,0l19 0c0,0 1,0 1,0 0,-1 -1,-1 -1,-1z"/>
   <path class="fil0" d="M32 35l-19 0c-1,0 -1,0 -1,1 0,0 0,1 1,1l19 0c0,0 1,-1 1,-1 0,-1 -1,-1 -1,-1z"/>
   <path class="fil0" d="M32 38l-19 0c-1,0 -1,1 -1,1 0,1 0,1 1,1l19 0c0,0 1,0 1,-1 0,0 -1,-1 -1,-1z"/>
  </g>
 </g>
</svg>
