<?xml version="1.0" encoding="UTF-8"?>
<!DOCTYPE svg PUBLIC "-//W3C//DTD SVG 1.1//EN" "http://www.w3.org/Graphics/SVG/1.1/DTD/svg11.dtd">
<!-- Creator: CorelDRAW X7 -->
<svg xmlns="http://www.w3.org/2000/svg" xml:space="preserve" width="40px" height="52px" version="1.1" style="shape-rendering:geometricPrecision; text-rendering:geometricPrecision; image-rendering:optimizeQuality; fill-rule:evenodd; clip-rule:evenodd"
viewBox="0 0 40 52"
 xmlns:xlink="http://www.w3.org/1999/xlink">
 <defs>
  <style type="text/css">
   <![CDATA[
    .fil0 {fill:#FEFEFE;fill-rule:nonzero}
   ]]>
  </style>
 </defs>
 <g id="Слой_x0020_1">
  <metadata id="CorelCorpID_0Corel-Layer"/>
  <path class="fil0" d="M10 19c1,1 2,1 4,1 1,0 3,0 4,-1 3,-2 5,-5 4,-10 0,-3 -1,-5 -3,-6 0,0 -1,-1 -1,-1 -1,0 -2,0 -3,-1 0,0 -2,0 -2,0 -4,1 -7,3 -8,8 0,5 2,8 5,10zm-9 26l0 0c0,0 0,0 0,0l3 -15c0,-3 2,-6 5,-7 4,-1 9,-1 12,2 1,0 1,1 0,1 0,1 -1,1 -1,1 -3,-2 -7,-3 -10,-2 -1,1 -4,2 -4,5l-3 14 13 0c1,0 1,0 1,1 0,1 0,1 -1,1l-14 0c0,0 -1,0 -1,0 0,0 0,-1 0,-1zm7 -36c0,-3 3,-5 6,-5 1,0 2,0 3,0 -1,2 -3,3 -5,4 -1,0 -1,0 -1,1 0,1 1,1 1,1 3,0 6,-2 7,-4 0,1 1,2 1,3 0,4 -1,7 -3,8 -2,1 -4,1 -6,0 -2,-1 -3,-4 -3,-8zm11 22c0,1 0,2 -1,2l-2 0c-1,0 -2,-1 -2,-2 0,0 1,-1 2,-1l2 0c1,0 1,1 1,1zm20 -2l-5 0c0,0 0,-1 0,-1 0,0 -1,-1 -1,-1l-3 0c-1,0 -1,1 -1,1 0,0 0,1 0,1l-5 0c-1,0 -2,0 -2,1l0 20c0,0 1,1 2,1l15 0c1,0 1,-1 1,-1l0 -20c0,-1 0,-1 -1,-1zm-1 20l-13 0 0 -18 4 0c0,0 0,0 0,0 0,1 0,2 1,2l3 0c0,0 1,-1 1,-2 0,0 0,0 0,0l4 0 0 18zm-8 -11l0 7c0,1 0,1 -1,1 -1,0 -1,0 -1,-1l0 -7c0,-1 0,-2 1,-2 1,0 1,1 1,2zm4 3c0,0 1,1 1,1l0 3c0,1 -1,1 -1,1 -1,0 -2,0 -2,-1l0 -3c0,0 1,-1 2,-1z"/>
 </g>
</svg>
