<?xml version="1.0" encoding="UTF-8"?>
<!DOCTYPE svg PUBLIC "-//W3C//DTD SVG 1.1//EN" "http://www.w3.org/Graphics/SVG/1.1/DTD/svg11.dtd">
<!-- Creator: CorelDRAW X7 -->
<svg xmlns="http://www.w3.org/2000/svg" xml:space="preserve" width="44px" height="55px" version="1.1" style="shape-rendering:geometricPrecision; text-rendering:geometricPrecision; image-rendering:optimizeQuality; fill-rule:evenodd; clip-rule:evenodd"
viewBox="0 0 44 55"
 xmlns:xlink="http://www.w3.org/1999/xlink">
 <defs>
  <style type="text/css">
   <![CDATA[
    .fil0 {fill:#FEFEFE;fill-rule:nonzero}
   ]]>
  </style>
 </defs>
 <g id="Слой_x0020_1">
  <metadata id="CorelCorpID_0Corel-Layer"/>
  <g id="_768374240">
   <path class="fil0" d="M6 8l-4 0c0,0 -1,0 -1,1l0 45c0,1 1,1 1,1l41 0c0,0 1,0 1,-1l0 -45c0,-1 -1,-1 -1,-1l-4 0c0,0 0,0 0,1l0 6 -33 0 0 -6c0,-1 0,-1 0,-1zm33 8c1,0 1,0 1,-1l0 -6 2 0 0 45 -39 0 0 -45 2 0 0 6c0,1 0,1 1,1l33 0z"/>
   <path class="fil0" d="M29 0l-13 0c-1,0 -1,1 -1,1l0 4 -6 0c-1,0 -1,1 -1,1l0 5c0,0 0,0 1,0l10 0c0,0 1,0 1,0l0 -4 5 0 0 4c0,0 1,0 1,0l10 0c1,0 1,0 1,0l0 -5c0,0 0,-1 -1,-1l-6 0 0 -4c0,0 0,-1 -1,-1zm7 7l0 3 -9 0 0 -4c0,0 -1,-1 -1,-1l-7 0c0,0 -1,1 -1,1l0 4 -9 0 0 -3 7 0c0,0 0,-1 0,-1l0 -4 13 0 0 4c0,0 0,1 0,1l7 0z"/>
   <path class="fil0" d="M5 31l0 3c0,1 0,1 1,1l33 0c1,0 1,0 1,-1l0 -3c0,0 0,0 -1,0l-33 0c-1,0 -1,0 -1,0zm1 1l33 0 0 2 -33 0 0 -2z"/>
   <path class="fil0" d="M39 37l-33 0c-1,0 -1,1 -1,1l0 3c0,0 0,1 1,1l33 0c1,0 1,-1 1,-1l0 -3c0,0 0,-1 -1,-1zm0 3l-33 0 0 -1 33 0 0 1z"/>
   <path class="fil0" d="M39 44l-33 0c-1,0 -1,0 -1,0l0 3c0,1 0,1 1,1l33 0c1,0 1,0 1,-1l0 -3c0,0 0,0 -1,0zm0 3l-33 0 0 -2 33 0 0 2z"/>
   <path class="fil0" d="M22 28c3,0 6,-2 6,-5 0,-3 -3,-5 -6,-5 -2,0 -5,2 -5,5 0,3 3,5 5,5zm0 -9c3,0 4,2 4,4 0,2 -1,4 -4,4 -2,0 -3,-2 -3,-4 0,-2 1,-4 3,-4z"/>
  </g>
 </g>
</svg>
