<?xml version="1.0" encoding="UTF-8"?>
<!DOCTYPE svg PUBLIC "-//W3C//DTD SVG 1.1//EN" "http://www.w3.org/Graphics/SVG/1.1/DTD/svg11.dtd">
<!-- Creator: CorelDRAW X7 -->
<svg xmlns="http://www.w3.org/2000/svg" xml:space="preserve" width="44px" height="55px" version="1.1" style="shape-rendering:geometricPrecision; text-rendering:geometricPrecision; image-rendering:optimizeQuality; fill-rule:evenodd; clip-rule:evenodd"
viewBox="0 0 44 55"
 xmlns:xlink="http://www.w3.org/1999/xlink">
 <defs>
  <style type="text/css">
   <![CDATA[
    .fil0 {fill:#FEFEFE;fill-rule:nonzero}
   ]]>
  </style>
 </defs>
 <g id="Слой_x0020_1">
  <metadata id="CorelCorpID_0Corel-Layer"/>
  <g id="_1183693904">
   <path class="fil0" d="M2042 630c0,0 1,-1 1,-1l0 -8 33 0 0 8c0,0 0,1 0,1 1,0 1,-1 1,-1l0 -9c0,0 0,-1 -1,-1l-34 0c-1,0 -1,1 -1,1l0 9c0,0 0,1 1,1z"/>
   <path class="fil0" d="M2077 652l0 -11c0,0 0,-1 -1,-1 0,0 0,1 0,1l0 11 -3 0 0 -13 7 0c0,0 1,-1 1,-1l0 -6c0,0 -1,-1 -1,-1l-7 0 0 -2c0,-1 0,-1 -1,-1l-26 0c0,0 -1,0 -1,1l0 2 -7 0c0,0 0,1 0,1l0 6c0,0 0,1 0,1l7 0 0 13 -2 0 0 -11c0,0 -1,-1 -1,-1 -1,0 -1,1 -1,1l0 11c-2,0 -4,2 -4,4l0 9c0,0 0,1 1,1l0 0 0 5c0,0 1,1 1,1l7 0c1,0 1,-1 1,-1l0 -3c0,0 0,0 -1,0 0,0 -1,0 -1,0l0 2 -5 0 0 -4 38 0 0 4 -5 0 0 -2c0,0 0,0 -1,0 0,0 -1,0 -1,0l0 3c0,0 1,1 1,1l7 0c1,0 1,-1 1,-1l0 -5 0 0c1,0 1,-1 1,-1l0 -9c0,-2 -2,-4 -4,-4zm-1 1c2,0 3,2 3,3l0 4 -6 0 0 -7 3 0zm3 11l-40 0 0 -3 40 0 0 3zm-32 -25l24 0 0 21 -24 0 0 -21zm32 -2l-2 0 0 -4 2 0 0 4zm-3 -4l0 4 -3 0 0 -4 3 0zm-5 4l-11 0 0 -7 11 0 0 7zm-24 -7l11 0 0 7 -11 0 0 -7zm-2 7l-2 0 0 -4 2 0 0 4zm-6 -4l2 0 0 4 -2 0 0 -4zm3 20l3 0 0 7 -6 0 0 -4c0,-1 1,-3 3,-3z"/>
   <path class="fil0" d="M2049 648l20 0c0,0 1,0 1,-1 0,-2 -3,-4 -5,-4l-12 0c-2,0 -4,2 -4,4 0,1 0,1 0,1zm4 -4l12 0c1,0 2,1 3,3l-18 0c1,-2 2,-3 3,-3z"/>
   <path class="fil0" d="M2069 650l-20 0c0,0 0,0 0,1 0,0 0,0 0,0l20 0c0,0 1,0 1,0 0,-1 -1,-1 -1,-1z"/>
   <path class="fil0" d="M2069 653l-20 0c0,0 0,1 0,1 0,0 0,1 0,1l20 0c0,0 1,-1 1,-1 0,0 -1,-1 -1,-1z"/>
   <path class="fil0" d="M2069 656l-20 0c0,0 0,1 0,1 0,1 0,1 0,1l20 0c0,0 1,0 1,-1 0,0 -1,-1 -1,-1z"/>
  </g>
  <g id="_1183684176">
   <path class="fil0" d="M12 30c1,0 1,1 2,1 0,0 0,0 0,0 0,0 1,0 1,0 0,0 0,-1 0,-1 -1,-1 -2,-1 -3,-1 -1,0 -1,0 -2,1 -1,0 -1,1 0,1 0,0 1,0 1,0 0,0 1,-1 1,-1z"/>
   <path class="fil0" d="M29 30c0,0 0,1 0,1 0,0 1,0 1,0 1,-1 2,-1 3,0 0,0 0,0 0,0 1,0 1,0 1,0 1,0 1,-1 0,-1 -1,-2 -3,-2 -5,0z"/>
   <path class="fil0" d="M32 39c-6,5 -14,5 -20,0 0,-1 -1,-1 -1,0 0,0 0,1 0,1 3,3 7,5 11,5 4,0 8,-2 11,-5 0,0 0,-1 0,-1 0,-1 -1,-1 -1,0z"/>
   <path class="fil0" d="M44 31c0,-2 -2,-4 -4,-5l0 -15c0,-2 -1,-4 -3,-5 -2,-1 -4,-2 -5,-1l-6 -2c-5,-1 -9,-2 -14,0 -6,1 -9,5 -9,9 -1,1 -1,2 -2,2l0 2c0,1 0,1 1,2 0,0 1,0 2,0 0,-1 0,-1 0,-1l0 9c-2,1 -4,3 -4,5 0,3 2,5 5,6 0,3 2,6 4,9 4,3 8,5 13,5l0 0c5,0 9,-2 13,-5 2,-3 4,-6 4,-9 3,-1 5,-3 5,-6zm-8 -24c1,1 2,2 2,4l0 12c-3,-1 -5,-3 -5,-6l0 -10c1,-1 2,0 3,0zm-33 9l0 -1c1,-1 2,-2 3,-3 1,-1 3,-1 4,0 3,1 7,1 9,-2l0 0c0,0 0,-1 0,-1 -1,-1 -1,-1 -2,0l0 0c-1,2 -4,2 -6,1 -2,-1 -4,-1 -6,0 0,0 0,0 0,0 1,-2 4,-4 8,-6 4,-1 8,-1 12,1l6 2 0 5c-3,3 -6,5 -10,6 -4,1 -9,0 -12,-2 -2,-2 -4,-2 -6,0zm-1 15c0,-1 1,-2 2,-3l0 5c0,1 0,1 0,2 -1,-1 -2,-2 -2,-4zm31 14c-3,3 -7,4 -11,4l0 0c-4,0 -8,-1 -11,-4 -3,-3 -5,-7 -5,-12l0 -16c1,0 1,0 2,0 4,3 8,4 13,3 4,-1 7,-3 10,-6l0 3c0,4 3,7 7,8l0 8c0,5 -2,9 -5,12zm7 -10c0,-1 0,-1 0,-2l0 -5c1,1 2,2 2,3 0,2 -1,3 -2,4z"/>
  </g>
 </g>
</svg>
