<?xml version="1.0" encoding="UTF-8"?>
<!DOCTYPE svg PUBLIC "-//W3C//DTD SVG 1.1//EN" "http://www.w3.org/Graphics/SVG/1.1/DTD/svg11.dtd">
<!-- Creator: CorelDRAW X7 -->
<svg xmlns="http://www.w3.org/2000/svg" xml:space="preserve" width="72px" height="72px" version="1.1" style="shape-rendering:geometricPrecision; text-rendering:geometricPrecision; image-rendering:optimizeQuality; fill-rule:evenodd; clip-rule:evenodd"
viewBox="0 0 72 72"
 xmlns:xlink="http://www.w3.org/1999/xlink">
 <defs>
  <style type="text/css">
   <![CDATA[
    .fil1 {fill:none}
    .fil0 {fill:#FEFEFE}
   ]]>
  </style>
   <clipPath id="id0">
    <path d="M36 1c20,0 35,16 35,35 0,8 -2,15 -7,21l-7 0c0,0 -1,0 -1,0 -4,0 -5,-3 -5,-8 0,-9 -1,-16 -1,-25 0,-10 -23,-11 -23,0l0 5 0 0c0,3 0,8 0,11 0,2 0,2 -1,2 -1,0 -1,0 -1,-1 0,-1 0,-1 0,-2 0,-5 0,-6 0,-11 0,-11 -4,-16 -13,-17 6,-6 15,-10 24,-10zm20 61l0 -1c1,0 1,0 2,0l0 1c-1,0 -1,0 -2,0zm-47 -47l0 -1 1 0 0 1c-1,0 -1,0 -1,0zm3 1l1 -1c0,0 1,0 2,1l-1 1c0,-1 -1,-1 -2,-1zm4 2l1 0c0,0 1,1 1,2l-1 0c0,-1 0,-1 -1,-2zm2 5l1 0c0,0 0,1 0,2l-1 0c0,-1 0,-2 0,-2zm0 5l1 0 0 2 -1 0 0 -2zm0 5l1 0 0 2 -1 0 0 -2zm0 5l1 0 0 2 -1 0 0 -2zm0 5l1 0c0,0 1,1 1,1l-1 1c0,-1 -1,-2 -1,-2zm3 4l1 -1c0,0 1,1 2,1l-1 1c0,0 -1,-1 -2,-1zm6 1l-1 -1c1,0 2,0 2,0l1 1c-1,0 -2,0 -2,0zm4 -2l0 -1c0,0 1,-1 1,-1l1 0c-1,1 -1,2 -2,2zm3 -5l-1 0c0,0 0,-1 0,-2l1 0c0,1 0,2 0,2zm0 -5l-1 0 0 -2 1 0 0 2zm0 -5l-1 0c0,0 0,-1 0,-2l1 0 0 2zm0 -5l-1 0c0,0 0,0 0,0l0 0 0 -1 0 0 0 0 0 0 0 0 0 0 0 0 0 0 0 0 0 0 0 0 0 0 0 0 0 0 0 0 0 0 0 0 0 0 0 0 0 0 0 0 0 0 0 0 0 0 0 0 0 0 0 0 0 0 0 0 0 0 0 0 0 0 0 0 0 0 0 0 0 0 0 0 0 0 0 0 0 0 0 0 0 0 0 0 0 0 0 0 0 0 0 0 0 0 0 0 0 0 0 0 0 0 0 0 0 0 0 0 0 0 0 0 0 0 0 0 0 0 0 0 0 0 0 0 0 0 0 0 0 0 0 0 0 0 0 0 0 0 0 0 0 0 0 0 0 0 0 0 0 0 0 0 0 0 0 0 0 0 0 -1 0 1 0 -1 0 1 0 -1 1 0 0 1 0 0 0 0 0 0 0 0 0 0 0 0 0 0 0 0 0 0 0 0 0 0 0 0 0 0 0 0 0 0 0 0 0 0 0 0 0 0 0 0 0 0 0 0 0 0 0 0 0 0 0 0 0 0 0 0 0 0 0 0 0 0 0 0 0 0 0 0 0 0 0 0 0 0 0 0 0 0 0 0 0 0 0 0 0 0 0 0 0 0 0 0 0 0 0 0 0 0 0 0 0 0 0 0 0 0 0 0 0 0 0 0 0 0 0 0 0 0 0 0 0 0 0 0 0 0 0 0 0 0 0 0 0 0 0 0 0 0 0 0 0 0 0 0 0 0 0 0 0 0 0 0 0 0 0 0 0 0 0 0 0 0 0 0 0 0 0 0 0 0 0 0 0 0 0 1 0 -1 0 1 0 0 0 0zm-1 -2l0 1 0 -1zm3 -1l-1 -1c1,-1 1,-1 2,-1l0 1c0,0 -1,0 -1,1zm4 -1l0 -1c1,0 2,0 2,0l0 1c0,0 -1,0 -2,0zm4 1l1 0c0,0 1,1 1,2l-1 0c0,-1 0,-1 -1,-2zm1 5l1 0 0 2 -1 0 0 -2zm0 5l1 0 0 2 -1 0 0 -2zm0 5l1 0 0 2 -1 0 0 -2zm0 5l1 0 0 2 -1 0 0 -2zm0 5l1 0c0,0 0,1 0,2l-1 0c0,-1 0,-2 0,-2zm0 5l1 0c0,0 0,1 1,2l-1 0c0,-1 -1,-2 -1,-2zm2 5l1 -1c0,1 0,1 1,2l-1 0c0,0 -1,-1 -1,-1zm4 3l0 -1c1,0 1,1 2,1l0 1c-1,0 -1,-1 -2,-1zm-45 -43c-3,6 -5,12 -5,18 0,20 16,35 35,35 8,0 15,-2 20,-6 0,0 -1,0 -2,0 -8,0 -12,-5 -13,-13 0,-1 0,-2 0,-3 0,-8 0,-12 0,-21 0,-2 -1,-2 -1,-2 -1,0 -2,0 -2,2 0,0 0,1 0,1l0 1 0 0c0,5 0,11 0,15 0,10 -24,10 -24,0 0,-7 0,-11 0,-18 0,-6 -2,-9 -6,-9l-2 0z"/>
   </clipPath>
 </defs>
 <g id="Слой_x0020_1">
  <metadata id="CorelCorpID_0Corel-Layer"/>
  <path class="fil0" d="M36 1c20,0 35,16 35,35 0,8 -2,15 -7,21l-7 0c0,0 -1,0 -1,0 -4,0 -5,-3 -5,-8 0,-9 -1,-16 -1,-25 0,-10 -23,-11 -23,0l0 5 0 0c0,3 0,8 0,11 0,2 0,2 -1,2 -1,0 -1,0 -1,-1 0,-1 0,-1 0,-2 0,-5 0,-6 0,-11 0,-11 -4,-16 -13,-17 6,-6 15,-10 24,-10zm20 61l0 -1c1,0 1,0 2,0l0 1c-1,0 -1,0 -2,0zm-47 -47l0 -1 1 0 0 1c-1,0 -1,0 -1,0zm3 1l1 -1c0,0 1,0 2,1l-1 1c0,-1 -1,-1 -2,-1zm4 2l1 0c0,0 1,1 1,2l-1 0c0,-1 0,-1 -1,-2zm2 5l1 0c0,0 0,1 0,2l-1 0c0,-1 0,-2 0,-2zm0 5l1 0 0 2 -1 0 0 -2zm0 5l1 0 0 2 -1 0 0 -2zm0 5l1 0 0 2 -1 0 0 -2zm0 5l1 0c0,0 1,1 1,1l-1 1c0,-1 -1,-2 -1,-2zm3 4l1 -1c0,0 1,1 2,1l-1 1c0,0 -1,-1 -2,-1zm6 1l-1 -1c1,0 2,0 2,0l1 1c-1,0 -2,0 -2,0zm4 -2l0 -1c0,0 1,-1 1,-1l1 0c-1,1 -1,2 -2,2zm3 -5l-1 0c0,0 0,-1 0,-2l1 0c0,1 0,2 0,2zm0 -5l-1 0 0 -2 1 0 0 2zm0 -5l-1 0c0,0 0,-1 0,-2l1 0 0 2zm0 -5l-1 0c0,0 0,0 0,0l0 0 0 -1 0 0 0 0 0 0 0 0 0 0 0 0 0 0 0 0 0 0 0 0 0 0 0 0 0 0 0 0 0 0 0 0 0 0 0 0 0 0 0 0 0 0 0 0 0 0 0 0 0 0 0 0 0 0 0 0 0 0 0 0 0 0 0 0 0 0 0 0 0 0 0 0 0 0 0 0 0 0 0 0 0 0 0 0 0 0 0 0 0 0 0 0 0 0 0 0 0 0 0 0 0 0 0 0 0 0 0 0 0 0 0 0 0 0 0 0 0 0 0 0 0 0 0 0 0 0 0 0 0 0 0 0 0 0 0 0 0 0 0 0 0 0 0 0 0 0 0 0 0 0 0 0 0 0 0 0 0 0 0 -1 0 1 0 -1 0 1 0 -1 1 0 0 1 0 0 0 0 0 0 0 0 0 0 0 0 0 0 0 0 0 0 0 0 0 0 0 0 0 0 0 0 0 0 0 0 0 0 0 0 0 0 0 0 0 0 0 0 0 0 0 0 0 0 0 0 0 0 0 0 0 0 0 0 0 0 0 0 0 0 0 0 0 0 0 0 0 0 0 0 0 0 0 0 0 0 0 0 0 0 0 0 0 0 0 0 0 0 0 0 0 0 0 0 0 0 0 0 0 0 0 0 0 0 0 0 0 0 0 0 0 0 0 0 0 0 0 0 0 0 0 0 0 0 0 0 0 0 0 0 0 0 0 0 0 0 0 0 0 0 0 0 0 0 0 0 0 0 0 0 0 0 0 0 0 0 0 0 0 0 0 0 0 0 0 0 0 0 0 1 0 -1 0 1 0 0 0 0zm-1 -2l0 1 0 -1zm3 -1l-1 -1c1,-1 1,-1 2,-1l0 1c0,0 -1,0 -1,1zm4 -1l0 -1c1,0 2,0 2,0l0 1c0,0 -1,0 -2,0zm4 1l1 0c0,0 1,1 1,2l-1 0c0,-1 0,-1 -1,-2zm1 5l1 0 0 2 -1 0 0 -2zm0 5l1 0 0 2 -1 0 0 -2zm0 5l1 0 0 2 -1 0 0 -2zm0 5l1 0 0 2 -1 0 0 -2zm0 5l1 0c0,0 0,1 0,2l-1 0c0,-1 0,-2 0,-2zm0 5l1 0c0,0 0,1 1,2l-1 0c0,-1 -1,-2 -1,-2zm2 5l1 -1c0,1 0,1 1,2l-1 0c0,0 -1,-1 -1,-1zm4 3l0 -1c1,0 1,1 2,1l0 1c-1,0 -1,-1 -2,-1zm-45 -43c-3,6 -5,12 -5,18 0,20 16,35 35,35 8,0 15,-2 20,-6 0,0 -1,0 -2,0 -8,0 -12,-5 -13,-13 0,-1 0,-2 0,-3 0,-8 0,-12 0,-21 0,-2 -1,-2 -1,-2 -1,0 -2,0 -2,2 0,0 0,1 0,1l0 1 0 0c0,5 0,11 0,15 0,10 -24,10 -24,0 0,-7 0,-11 0,-18 0,-6 -2,-9 -6,-9l-2 0z"/>
  <g style="clip-path:url(#id0)">
   <g id="_852135984">
   </g>
  </g>
  <path id="1" class="fil1" d="M36 1c20,0 35,16 35,35 0,8 -2,15 -7,21l-7 0c0,0 -1,0 -1,0 -4,0 -5,-3 -5,-8 0,-9 -1,-16 -1,-25 0,-10 -23,-11 -23,0l0 5 0 0c0,3 0,8 0,11 0,2 0,2 -1,2 -1,0 -1,0 -1,-1 0,-1 0,-1 0,-2 0,-5 0,-6 0,-11 0,-11 -4,-16 -13,-17 6,-6 15,-10 24,-10zm20 61l0 -1c1,0 1,0 2,0l0 1c-1,0 -1,0 -2,0zm-47 -47l0 -1 1 0 0 1c-1,0 -1,0 -1,0zm3 1l1 -1c0,0 1,0 2,1l-1 1c0,-1 -1,-1 -2,-1zm4 2l1 0c0,0 1,1 1,2l-1 0c0,-1 0,-1 -1,-2zm2 5l1 0c0,0 0,1 0,2l-1 0c0,-1 0,-2 0,-2zm0 5l1 0 0 2 -1 0 0 -2zm0 5l1 0 0 2 -1 0 0 -2zm0 5l1 0 0 2 -1 0 0 -2zm0 5l1 0c0,0 1,1 1,1l-1 1c0,-1 -1,-2 -1,-2zm3 4l1 -1c0,0 1,1 2,1l-1 1c0,0 -1,-1 -2,-1zm6 1l-1 -1c1,0 2,0 2,0l1 1c-1,0 -2,0 -2,0zm4 -2l0 -1c0,0 1,-1 1,-1l1 0c-1,1 -1,2 -2,2zm3 -5l-1 0c0,0 0,-1 0,-2l1 0c0,1 0,2 0,2zm0 -5l-1 0 0 -2 1 0 0 2zm0 -5l-1 0c0,0 0,-1 0,-2l1 0 0 2zm0 -5l-1 0c0,0 0,0 0,0l0 0 0 -1 0 0 0 0 0 0 0 0 0 0 0 0 0 0 0 0 0 0 0 0 0 0 0 0 0 0 0 0 0 0 0 0 0 0 0 0 0 0 0 0 0 0 0 0 0 0 0 0 0 0 0 0 0 0 0 0 0 0 0 0 0 0 0 0 0 0 0 0 0 0 0 0 0 0 0 0 0 0 0 0 0 0 0 0 0 0 0 0 0 0 0 0 0 0 0 0 0 0 0 0 0 0 0 0 0 0 0 0 0 0 0 0 0 0 0 0 0 0 0 0 0 0 0 0 0 0 0 0 0 0 0 0 0 0 0 0 0 0 0 0 0 0 0 0 0 0 0 0 0 0 0 0 0 0 0 0 0 0 0 -1 0 1 0 -1 0 1 0 -1 1 0 0 1 0 0 0 0 0 0 0 0 0 0 0 0 0 0 0 0 0 0 0 0 0 0 0 0 0 0 0 0 0 0 0 0 0 0 0 0 0 0 0 0 0 0 0 0 0 0 0 0 0 0 0 0 0 0 0 0 0 0 0 0 0 0 0 0 0 0 0 0 0 0 0 0 0 0 0 0 0 0 0 0 0 0 0 0 0 0 0 0 0 0 0 0 0 0 0 0 0 0 0 0 0 0 0 0 0 0 0 0 0 0 0 0 0 0 0 0 0 0 0 0 0 0 0 0 0 0 0 0 0 0 0 0 0 0 0 0 0 0 0 0 0 0 0 0 0 0 0 0 0 0 0 0 0 0 0 0 0 0 0 0 0 0 0 0 0 0 0 0 0 0 0 0 0 0 0 1 0 -1 0 1 0 0 0 0zm-1 -2l0 1 0 -1zm3 -1l-1 -1c1,-1 1,-1 2,-1l0 1c0,0 -1,0 -1,1zm4 -1l0 -1c1,0 2,0 2,0l0 1c0,0 -1,0 -2,0zm4 1l1 0c0,0 1,1 1,2l-1 0c0,-1 0,-1 -1,-2zm1 5l1 0 0 2 -1 0 0 -2zm0 5l1 0 0 2 -1 0 0 -2zm0 5l1 0 0 2 -1 0 0 -2zm0 5l1 0 0 2 -1 0 0 -2zm0 5l1 0c0,0 0,1 0,2l-1 0c0,-1 0,-2 0,-2zm0 5l1 0c0,0 0,1 1,2l-1 0c0,-1 -1,-2 -1,-2zm2 5l1 -1c0,1 0,1 1,2l-1 0c0,0 -1,-1 -1,-1zm4 3l0 -1c1,0 1,1 2,1l0 1c-1,0 -1,-1 -2,-1zm-45 -43c-3,6 -5,12 -5,18 0,20 16,35 35,35 8,0 15,-2 20,-6 0,0 -1,0 -2,0 -8,0 -12,-5 -13,-13 0,-1 0,-2 0,-3 0,-8 0,-12 0,-21 0,-2 -1,-2 -1,-2 -1,0 -2,0 -2,2 0,0 0,1 0,1l0 1 0 0c0,5 0,11 0,15 0,10 -24,10 -24,0 0,-7 0,-11 0,-18 0,-6 -2,-9 -6,-9l-2 0z"/>
 </g>
</svg>
