<?xml version="1.0" encoding="UTF-8"?>
<!DOCTYPE svg PUBLIC "-//W3C//DTD SVG 1.1//EN" "http://www.w3.org/Graphics/SVG/1.1/DTD/svg11.dtd">
<!-- Creator: CorelDRAW X7 -->
<svg xmlns="http://www.w3.org/2000/svg" xml:space="preserve" width="860px" height="912px" version="1.1" style="shape-rendering:geometricPrecision; text-rendering:geometricPrecision; image-rendering:optimizeQuality; fill-rule:evenodd; clip-rule:evenodd"
viewBox="0 0 860 912"
 xmlns:xlink="http://www.w3.org/1999/xlink">
 <defs>
  <style type="text/css">
   <![CDATA[
    .fil0 {fill:#FEFEFE;fill-rule:nonzero}
    .fil1 {fill:#D02124;fill-rule:nonzero}
   ]]>
  </style>
 </defs>
 <g id="Слой_x0020_1">
  <metadata id="CorelCorpID_0Corel-Layer"/>
  <g id="_930734912">
   <path class="fil0" d="M2450 1058c0,0 1,0 1,-1l0 -7 33 0 0 7c0,1 0,1 0,1 1,0 1,0 1,-1l0 -8c0,-1 0,-1 -1,-1l-34 0c-1,0 -1,0 -1,1l0 8c0,1 0,1 1,1z"/>
   <path class="fil0" d="M2485 1080l0 -11c0,0 0,0 -1,0 0,0 0,0 0,0l0 11 -3 0 0 -13 7 0c0,0 0,0 0,-1l0 -5c0,-1 0,-1 0,-1l-7 0 0 -3c0,0 -1,-1 -1,-1l-26 0c0,0 -1,1 -1,1l0 3 -7 0c0,0 0,0 0,1l0 5c0,1 0,1 0,1l7 0 0 13 -2 0 0 -11c0,0 -1,0 -1,0 -1,0 -1,0 -1,0l0 11c-2,0 -4,2 -4,5l0 9c0,0 0,0 1,0l0 0 0 5c0,1 1,1 1,1l7 0c1,0 1,0 1,-1l0 -2c0,-1 0,-1 -1,-1 0,0 -1,0 -1,1l0 1 -5 0 0 -4 38 0 0 4 -5 0 0 -1c0,-1 -1,-1 -1,-1 0,0 -1,0 -1,1l0 2c0,1 1,1 1,1l7 0c1,0 1,0 1,-1l0 -5 0 0c1,0 1,0 1,0l0 -9c0,-3 -2,-5 -4,-5zm-1 2c2,0 3,1 3,3l0 3 -6 0 0 -6 3 0zm3 11l-40 0 0 -3 40 0 0 3zm-32 -26l24 0 0 21 -24 0 0 -21zm32 -2l-2 0 0 -4 2 0 0 4zm-3 -4l0 4 -3 0 0 -4 3 0zm-5 4l-11 0 0 -7 11 0 0 7zm-24 -7l11 0 0 7 -11 0 0 -7zm-2 7l-2 0 0 -4 2 0 0 4zm-6 -4l2 0 0 4 -2 0 0 -4zm3 21l3 0 0 6 -6 0 0 -3c0,-2 1,-3 3,-3z"/>
   <path class="fil0" d="M2457 1077l20 0c0,0 1,-1 1,-1 0,-3 -3,-5 -5,-5l-12 0c-2,0 -4,2 -4,5 0,0 0,1 0,1zm4 -4l12 0c1,0 2,1 3,2l-18 0c1,-1 2,-2 3,-2z"/>
   <path class="fil0" d="M2477 1078l-20 0c0,0 0,1 0,1 0,1 0,1 0,1l20 0c0,0 1,0 1,-1 0,0 -1,-1 -1,-1z"/>
   <path class="fil0" d="M2477 1082l-20 0c0,0 0,0 0,0 0,1 0,1 0,1l20 0c0,0 1,0 1,-1 0,0 -1,0 -1,0z"/>
   <path class="fil0" d="M2477 1085l-20 0c0,0 0,0 0,1 0,0 0,1 0,1l20 0c0,0 1,-1 1,-1 0,-1 -1,-1 -1,-1z"/>
  </g>
  <path class="fil1" d="M550 484c0,1 1,2 1,3 0,1 1,2 2,2 0,1 1,2 2,2 1,0 2,1 4,1l180 0c11,0 22,-3 32,-6 10,-5 20,-11 29,-18 8,-8 15,-17 21,-27 5,-10 9,-20 10,-31l23 -178c2,-15 2,-29 1,-40 -1,-13 -3,-23 -7,-31 -3,-8 -6,-13 -10,-18 -5,-6 -10,-10 -15,-13 -9,-5 -19,-8 -30,-9 -12,-1 -25,0 -39,3 -15,4 -31,9 -46,17 -17,8 -34,18 -49,29 -12,8 -24,17 -36,26 -11,10 -23,19 -35,29 -12,10 -23,21 -34,30 -11,10 -22,20 -32,30l-12 11 -3 -16c-1,-3 -2,-5 -2,-7 -1,-3 -3,-5 -4,-7 -1,-2 -3,-4 -4,-6 -2,-1 -4,-3 -6,-4l-2 -2 -3 -8c-2,-3 -5,-6 -7,-10l149 -199c0,-1 1,-2 1,-3 0,-1 0,-2 0,-3 0,-1 0,-2 -1,-3 0,-1 -1,-2 -2,-2l0 -1c-1,0 -2,-1 -3,-1 -1,0 -2,0 -3,0 -1,0 -2,1 -3,1 -1,1 -2,1 -2,2l-148 198 -7 -4c-2,-1 -4,-2 -6,-3 -3,-1 -5,-2 -8,-2 -2,-1 -5,-2 -7,-2 -3,0 -5,0 -8,0 -2,0 -5,0 -7,0 -3,0 -5,1 -8,1 -2,1 -4,2 -7,3 -2,1 -4,2 -7,3l-6 4 -2 -3c-16,-20 -31,-41 -46,-62 -33,-46 -66,-92 -100,-133 0,-1 -1,-1 -2,-2 -1,0 -2,-1 -3,-1 -1,0 -2,0 -3,0 -1,0 -2,1 -3,2l0 0c-1,0 -2,1 -2,2 -1,1 -1,2 -1,3 -1,1 0,2 0,3 0,1 1,2 1,3l149 199c-3,4 -5,7 -7,10l-3 8 -2 2c-2,1 -4,3 -6,4 -1,2 -3,4 -4,6 -1,2 -3,4 -3,6 -1,2 -2,5 -3,7l-3 16 -12 -11c-10,-10 -21,-20 -32,-29 -11,-10 -22,-20 -34,-30 -11,-10 -23,-20 -35,-29 -11,-9 -23,-18 -35,-26 -15,-11 -32,-21 -49,-29 -15,-8 -31,-13 -46,-17 -14,-3 -27,-4 -39,-3 -11,1 -21,4 -30,9 -5,3 -10,7 -15,13 -4,5 -7,10 -10,18 -4,8 -6,18 -8,31 0,12 0,25 2,40l23 178c1,11 5,21 10,31 6,10 13,19 21,27 9,7 19,13 29,18 10,3 21,6 32,6l180 0c2,0 3,-1 4,-1 1,0 1,-1 2,-2 1,0 2,-1 2,-2 0,-1 1,-2 1,-3 0,-2 -1,-3 -1,-4 0,-1 -1,-2 -2,-2 0,-1 -1,-2 -2,-2 -1,0 -2,-1 -4,-1l-108 0 -2 -1c-8,-5 -15,-13 -21,-22 -6,-10 -12,-22 -16,-35 -5,-12 -8,-26 -10,-41 -2,-14 -3,-29 -3,-43 0,-9 1,-21 3,-34 2,-10 4,-21 8,-31 5,-14 11,-28 21,-41 8,-10 19,-20 32,-27l5 -3 5 3c12,10 24,19 36,30 12,9 24,20 36,30 12,11 23,21 33,31l41 37 -2 6c-1,4 -2,9 -3,13 -1,5 -2,10 -2,15 -1,4 -2,9 -2,14 0,5 0,10 0,16 0,8 0,15 1,23 1,7 2,15 3,22 2,7 4,14 6,21 2,6 5,12 8,18l2 4 -2 4c-8,20 -18,39 -28,57 -10,18 -22,35 -34,51 -12,16 -24,30 -38,43 -13,13 -27,25 -42,35 -1,1 -1,2 -2,3 -1,0 -1,1 -1,2 0,2 0,3 0,4 0,1 0,2 1,3l0 0c1,1 2,1 2,2 1,0 2,1 3,1 1,0 3,0 4,0 1,0 2,-1 3,-1 11,-8 23,-18 34,-28 11,-10 22,-21 32,-33 10,-11 20,-24 29,-38 10,-13 19,-27 27,-42l15 -27 6 76 4 48 4 50c2,19 5,39 6,58l-1 2c-6,14 -14,27 -23,38 -9,12 -19,22 -31,31 -11,9 -24,17 -37,23 -14,6 -28,11 -42,14l-17 3 -3 -1c-8,-5 -15,-11 -22,-18 -7,-7 -14,-16 -20,-26 -6,-10 -12,-21 -18,-33 -5,-11 -10,-24 -14,-37 -6,-18 -10,-37 -12,-55 -3,-19 -4,-37 -3,-55 0,-17 3,-34 7,-50 4,-15 9,-30 16,-42 1,-1 1,-2 1,-3 0,-1 0,-2 0,-3 0,-1 -1,-2 -1,-3 -1,-1 -2,-2 -3,-2 -1,-1 -2,-1 -3,-1 -1,0 -2,0 -3,0 -1,0 -2,1 -3,1 -1,1 -1,2 -2,3 -8,13 -14,28 -18,44 -4,17 -7,35 -8,53 -1,19 0,38 3,58 3,20 7,40 13,60 4,11 8,21 12,31 4,10 8,19 13,28 5,9 10,17 15,24 6,8 11,14 17,20l12 12 -57 12c-12,2 -24,2 -36,0 -11,-2 -22,-7 -32,-14 -10,-6 -19,-15 -25,-24 -7,-10 -11,-21 -14,-33l-23 -116c-3,-13 -4,-27 -3,-40 0,-14 3,-27 7,-40 3,-13 9,-26 16,-38 7,-11 15,-22 24,-32l1 0c0,-1 1,-2 1,-3 1,-1 1,-2 1,-3 0,-1 0,-2 -1,-3 0,-1 -1,-2 -1,-2l-1 -1c0,0 -1,-1 -2,-1 -1,-1 -2,-1 -4,-1 -1,0 -2,0 -3,1 -1,0 -1,1 -2,1l0 1c-11,10 -20,22 -27,35 -8,13 -14,27 -18,41 -5,14 -7,29 -8,44 0,15 1,30 4,44l23 116c3,13 7,24 13,34 7,11 15,20 24,28 9,7 20,14 32,18 11,4 23,6 36,6 3,0 7,0 10,-1l6 0 5 -1 98 -20c14,-3 27,-7 39,-12 13,-5 25,-12 36,-20 12,-8 22,-17 32,-26 9,-10 18,-21 25,-33l6 -9 8 7c1,1 3,3 4,3 2,1 3,2 4,3 2,0 3,1 5,1 1,0 3,0 4,0 2,0 3,0 5,0 1,0 3,-1 4,-1 2,-1 3,-2 5,-3 1,-1 3,-2 4,-3l8 -7 6 9c7,12 16,23 25,32 10,10 21,19 32,27 11,8 23,15 36,20 13,5 26,9 40,12l98 20 5 1 6 0 5 1 5 0c13,0 25,-2 36,-6 12,-4 22,-11 32,-18 9,-8 17,-17 24,-28 6,-10 10,-21 13,-34l23 -116c3,-14 4,-29 4,-44 -1,-15 -4,-30 -8,-44 -4,-14 -10,-28 -18,-41 -7,-13 -16,-25 -27,-35 -1,-1 -1,-2 -2,-2 -1,-1 -2,-1 -4,-1 -1,0 -2,0 -3,1 -1,0 -2,1 -2,1 -1,1 -2,2 -2,3 -1,1 -1,2 -1,3 0,1 0,2 1,3 0,1 1,2 1,3 10,10 18,21 25,32 7,12 13,25 16,38 4,13 7,26 7,40 1,13 0,27 -3,40l-23 116c-3,12 -7,23 -14,33 -6,9 -15,18 -25,24 -10,7 -20,11 -32,14 -11,2 -23,2 -35,0l-58 -12 12 -12c6,-6 11,-12 17,-20 5,-7 10,-15 15,-24 5,-9 9,-18 13,-28 4,-10 8,-20 11,-31 7,-20 11,-40 14,-60 3,-20 4,-39 3,-58 -1,-18 -4,-36 -8,-53 -4,-16 -10,-31 -18,-44 -1,-1 -1,-2 -2,-3 -1,0 -2,-1 -3,-1 -1,0 -2,0 -3,0 -1,0 -2,0 -3,1l-1 0c-1,1 -1,1 -2,2 0,1 -1,2 -1,3 0,1 0,2 0,3 0,1 0,2 1,3 7,12 12,27 16,42 4,16 7,33 7,50 1,18 0,36 -3,55 -2,18 -6,37 -12,55 -4,13 -9,26 -14,37 -6,12 -12,23 -18,33 -6,10 -13,19 -20,26 -7,7 -14,13 -22,18l-3 1 -17 -3c-15,-3 -29,-8 -42,-14 -14,-6 -26,-14 -38,-23 -11,-9 -22,-19 -31,-31 -9,-12 -17,-24 -23,-38l-1 -2c2,-19 3,-38 5,-58l5 -50 4 -47 6 -77 15 27c8,16 17,30 26,43 9,14 19,26 29,38 10,12 21,23 31,33 11,10 22,19 34,27 1,0 2,1 3,1 1,0 2,0 3,0 1,0 2,-1 3,-1 1,-1 2,-1 2,-2 1,-1 1,-2 2,-3 0,-1 0,-2 0,-4 -1,-1 -1,-2 -1,-2 -1,-1 -2,-2 -3,-3 -14,-10 -27,-21 -40,-34 -14,-13 -26,-27 -38,-43 -12,-16 -23,-33 -33,-52 -10,-18 -20,-37 -28,-57l-2 -4 2 -4c3,-6 6,-12 8,-18 2,-7 4,-14 6,-21 1,-7 2,-15 3,-22 1,-8 1,-16 1,-23 0,-5 0,-10 0,-15 0,-5 -1,-10 -2,-15 0,-5 -1,-9 -2,-14 -1,-5 -2,-9 -3,-14l-2 -5 42 -38c10,-10 21,-20 33,-31 12,-10 24,-21 36,-30 12,-11 24,-20 36,-30l5 -3 5 3c11,6 19,13 27,21 8,9 14,20 20,30 5,13 9,26 12,38 4,17 5,33 5,44 0,14 -1,29 -3,43 -2,15 -5,29 -10,41 -4,13 -10,25 -16,35 -6,9 -13,17 -21,22l-2 1 -108 0c-2,0 -3,1 -4,1 -1,0 -2,1 -2,2 -1,0 -2,1 -2,2 0,1 -1,2 -1,4zm-422 -152c0,12 1,24 2,36 2,12 4,24 7,35 2,11 6,22 10,32 4,9 8,18 13,26l10 14 -45 0c-9,0 -18,-2 -26,-5 -9,-3 -17,-9 -24,-15 -7,-6 -13,-14 -17,-22 -5,-8 -8,-17 -9,-26l-23 -177c-1,-9 -2,-19 -2,-29 1,-8 1,-16 3,-24 2,-7 5,-13 9,-19 3,-6 8,-10 13,-14 3,-1 5,-2 7,-3 3,-1 5,-2 8,-2 2,-1 5,-1 8,-2 3,0 6,0 9,0 7,0 15,1 24,3 8,2 17,4 27,8 9,3 18,8 28,13 9,5 19,11 28,17l11 7 -10 8c-9,7 -18,15 -25,24 -7,10 -14,21 -19,32 -5,12 -9,25 -12,39 -3,14 -4,29 -5,44zm349 -13c2,5 4,10 6,16 1,6 3,12 4,18 1,6 2,12 3,19 1,7 1,13 1,20 0,7 -1,15 -1,23 -1,7 -2,15 -4,22 -2,7 -4,14 -6,20 -3,6 -6,12 -9,18 -1,1 -1,2 -1,4 -1,20 -3,40 -4,60 -1,20 -3,41 -5,62 -2,21 -4,44 -6,68 -2,24 -5,48 -7,74 -1,2 -1,5 -2,7 0,2 -1,5 -1,6 -1,3 -3,5 -4,7 -1,2 -3,4 -4,5l-6 4 -5 -4c-1,-1 -2,-2 -4,-4 -1,-1 -2,-3 -3,-5 0,-2 -1,-3 -1,-5 -1,-2 -1,-3 -2,-6l-1 -5c-2,-26 -5,-50 -7,-74 -2,-25 -4,-47 -6,-68l-5 -62c-1,-14 -1,-53 -5,-64 -3,-6 -6,-11 -9,-18 -2,-6 -4,-13 -6,-20 -2,-7 -3,-15 -4,-22 -1,-8 -1,-16 -1,-23 0,-6 0,-11 1,-17 0,-5 1,-11 2,-16 0,-5 2,-11 3,-15 1,-5 3,-10 4,-15 1,-2 2,-4 3,-6l2 -6 0 -3c0,-1 0,-2 0,-3 0,0 -1,-1 -1,-2l-1 -1c-1,-1 -2,-1 -2,-2 -2,0 -4,-2 -5,-3 -1,-1 -2,-3 -3,-5 -1,-1 -2,-3 -2,-5 -1,-2 -1,-4 -1,-6 0,-2 0,-4 1,-6 0,-2 1,-3 2,-5 1,-2 2,-4 4,-5 1,-1 3,-2 5,-3l1 -1 2 -1 1 -2 1 -1c0,-2 1,-4 1,-6 1,-2 2,-3 3,-5 1,-2 2,-3 3,-5 1,-1 3,-3 4,-4l1 0c2,-2 4,-4 6,-6 3,-1 5,-3 8,-4 2,-1 5,-2 8,-2 3,-1 6,-1 8,-1 3,0 6,0 9,1 3,0 5,1 8,2 3,1 5,3 8,4 2,2 4,4 6,5l1 1c1,2 3,3 4,5 1,1 2,3 3,4 1,2 2,4 2,5 1,2 2,4 2,5l1 2 1 2 1 1 2 1c2,1 3,2 5,3 2,2 3,3 4,5 1,2 2,4 2,5 1,2 1,4 1,6 0,2 0,4 -1,6 0,2 -1,4 -2,5 -1,2 -2,4 -3,5 -2,1 -3,3 -5,3l-2 2 -1 1c0,1 -1,2 -1,2 0,1 0,2 0,3 0,2 0,3 1,5zm199 -141c13,-9 26,-17 39,-23 13,-6 26,-11 38,-14 13,-3 24,-5 35,-4 10,1 19,3 26,7 7,4 12,10 16,16 4,7 6,15 8,24 1,7 2,14 2,21 0,9 -1,17 -2,25l-23 177c-1,9 -4,18 -9,26 -4,8 -10,16 -17,22 -7,6 -15,12 -24,15 -8,3 -17,5 -26,5l-45 0 10 -14c5,-8 9,-17 13,-26 4,-10 8,-21 10,-32 3,-11 5,-23 7,-35 1,-12 2,-24 2,-36 -1,-15 -2,-30 -5,-44 -3,-14 -7,-27 -12,-39 -5,-11 -12,-22 -19,-32 -7,-9 -16,-17 -25,-24l-10 -8 11 -7zm-472 182c0,7 1,12 3,18 3,5 6,10 10,14 4,5 9,8 15,10 5,2 11,4 17,4 6,0 12,-2 17,-4 6,-2 11,-5 15,-10 4,-4 8,-9 10,-14 2,-6 3,-11 3,-18 0,-6 -1,-12 -3,-17 -2,-5 -6,-10 -10,-15 -4,-4 -9,-7 -15,-9 -5,-3 -11,-4 -17,-4 -6,0 -12,1 -17,4 -6,2 -11,5 -15,9 -4,5 -7,10 -10,15 -2,5 -3,11 -3,17zm74 0c0,4 -1,8 -2,11 -2,4 -4,7 -6,10 -3,2 -6,5 -10,6 -3,1 -7,2 -11,2 -4,0 -7,-1 -11,-2 -3,-1 -7,-4 -9,-6 -5,-5 -9,-13 -9,-21 0,-3 1,-7 3,-11 1,-3 3,-6 6,-9 5,-5 12,-8 20,-8 4,0 8,0 11,2 4,1 7,3 10,6 2,3 4,6 6,9 1,4 2,8 2,11zm382 0c0,-6 -1,-12 -3,-17 -3,-5 -6,-10 -10,-15 -4,-4 -9,-7 -15,-9 -5,-3 -11,-4 -17,-4 -6,0 -12,1 -17,4 -6,2 -11,5 -15,9 -4,5 -8,10 -10,15 -2,5 -3,11 -3,17 0,7 1,12 3,18 2,5 6,10 10,14 4,5 9,8 15,10 5,2 11,4 17,4 6,0 12,-2 17,-4 6,-2 11,-5 15,-10 4,-4 7,-9 10,-14 2,-6 3,-11 3,-18zm-74 0c0,-3 1,-7 2,-11 2,-3 4,-6 6,-9 3,-3 6,-5 10,-6 3,-2 7,-2 11,-2 4,0 7,0 11,2 3,1 6,3 9,6 3,3 5,6 6,9 2,4 3,8 3,11 0,4 -1,8 -3,11 -1,4 -3,7 -6,10 -3,2 -6,5 -9,6 -4,1 -7,2 -11,2 -4,0 -8,-1 -11,-2 -4,-1 -7,-4 -10,-6 -2,-3 -4,-6 -6,-10 -1,-3 -2,-7 -2,-11z"/>
 </g>
</svg>
