<?xml version="1.0" encoding="UTF-8"?>
<!DOCTYPE svg PUBLIC "-//W3C//DTD SVG 1.1//EN" "http://www.w3.org/Graphics/SVG/1.1/DTD/svg11.dtd">
<!-- Creator: CorelDRAW X7 -->
<svg xmlns="http://www.w3.org/2000/svg" xml:space="preserve" width="640px" height="625px" version="1.1" style="shape-rendering:geometricPrecision; text-rendering:geometricPrecision; image-rendering:optimizeQuality; fill-rule:evenodd; clip-rule:evenodd"
viewBox="0 0 640 625"
 xmlns:xlink="http://www.w3.org/1999/xlink">
 <defs>
  <style type="text/css">
   <![CDATA[
    .fil0 {fill:none;fill-rule:nonzero}
    .fil1 {fill:#D02124;fill-rule:nonzero}
   ]]>
  </style>
 </defs>
 <g id="Слой_x0020_1">
  <metadata id="CorelCorpID_0Corel-Layer"/>
  <g id="_1171695440">
   <g>
    <path class="fil0" d="M277 617l37 -93c15,-37 41,-84 94,-94 22,-4 68,-4 90,0 53,10 79,57 94,94l37 93"/>
    <path class="fil1" d="M283 619c-2,3 -5,5 -9,4 -3,-2 -5,-5 -3,-9l37 -92c8,-19 18,-41 34,-59 16,-19 37,-34 65,-39 11,-2 29,-3 46,-3 18,0 35,1 46,3 29,5 49,20 65,39 15,18 26,40 34,59l37 92c1,4 -1,7 -4,9 -3,1 -7,-1 -8,-4l-37 -93c-8,-17 -17,-38 -32,-55 -14,-17 -32,-30 -57,-35 -11,-2 -27,-3 -44,-3 -16,0 -33,1 -44,3 -25,5 -43,18 -57,35 -15,17 -24,38 -32,55l-37 93z"/>
    <path class="fil1" d="M458 490l-18 0c-3,0 -6,-2 -7,-5l-8 -35c-1,-4 1,-7 4,-8l2 0 43 0c4,0 7,3 7,6 0,1 0,2 -1,2l-8 35c-1,3 -4,5 -6,5l-8 0zm-15 120l-17 -13c-2,-2 -3,-4 -2,-6l10 -88c0,-3 3,-6 6,-6l25 0c4,0 6,3 7,6l10 88c0,2 -1,4 -3,6l-22 18c-3,2 -6,2 -8,0l-6 -5zm-6 -21l16 13 16 -13 -10 -79 -13 0 -9 79zm8 -112l16 0 5 -22 -27 0 6 22z"/>
    <path class="fil1" d="M514 518c1,2 3,4 7,4 4,0 6,-2 7,-4 1,-2 1,-3 1,-5 0,-1 0,-3 -1,-4 -1,-2 -3,-4 -7,-4 -4,0 -6,2 -7,4 -1,1 -1,3 -1,4 0,2 0,3 1,5z"/>
   </g>
   <path class="fil1" d="M7 627l1 0c1,0 2,0 3,0 1,-1 2,-2 2,-3l37 -91c8,-20 17,-37 27,-49 11,-13 22,-22 35,-27l7 -3 45 62c1,0 1,1 2,1 1,1 2,1 2,1 1,0 2,0 3,-1 1,0 1,-1 2,-1l45 -62 7 3c7,3 14,7 21,13 6,5 12,12 18,20 4,5 10,12 13,18 1,1 2,2 4,2 1,0 2,0 3,-1 2,0 2,-2 3,-3 0,-1 0,-3 -1,-4 -4,-6 -10,-13 -14,-18 -10,-15 -22,-26 -35,-33 -13,-7 -28,-10 -44,-10l-49 0c-30,0 -52,12 -68,29 -17,17 -28,40 -35,59l-37 91c-1,2 -1,3 0,4 0,1 1,2 2,3l1 0zm154 -134l-31 -42 77 0 -39 53 -7 -11zm-90 134l157 0c2,0 3,0 4,-1 1,-1 1,-2 1,-4 0,-1 0,-3 -1,-3 -1,-1 -2,-2 -4,-2l-157 0c-2,0 -3,1 -4,2 -1,0 -2,2 -2,3 0,2 1,3 2,4 1,1 2,1 4,1zm51 -247c12,12 28,19 46,19 18,0 35,-7 47,-19 12,-12 19,-28 19,-46 0,-2 0,-4 0,-6 0,-2 -1,-3 -1,-5 -2,-16 -11,-29 -22,-39 -11,-10 -26,-16 -42,-16 -1,0 -4,0 -5,0 -3,1 -5,1 -7,1 -2,1 -4,1 -7,2l0 0c-14,4 -26,12 -34,24 -8,11 -13,24 -13,39 0,18 7,34 19,46zm-3 -71c4,-8 10,-15 17,-20l10 -7 5 12c5,12 13,23 24,30 11,7 24,11 38,11l12 0 -3 12c-3,12 -10,23 -20,30 -9,8 -21,12 -34,12 -15,0 -29,-6 -39,-16 -10,-10 -16,-24 -16,-39 0,-9 2,-18 6,-25zm62 6c-9,-5 -15,-13 -20,-23l-6 -14 16 1c10,0 20,4 28,9 9,6 16,14 20,23l6 15 -15 -1c-11,-1 -21,-4 -29,-10zm227 62c12,12 29,19 47,19 18,0 35,-7 47,-19 12,-12 20,-29 20,-47 0,-16 -6,-31 -15,-42 -10,-12 -23,-20 -38,-24l-1 0c-2,0 -4,0 -6,-1 -2,0 -4,0 -7,0 -18,0 -35,8 -47,20 -12,12 -19,28 -19,47 0,18 7,35 19,47zm-3 -74c5,-8 11,-14 18,-20l19 -13 -4 23c0,0 0,1 0,2 0,0 1,1 1,1 1,1 2,2 3,3 1,0 3,0 4,-1 4,-2 8,-5 11,-7 3,-3 6,-6 9,-10l5 -6 6 3c11,4 19,12 25,21 6,9 9,19 9,31 0,15 -6,29 -16,39 -10,10 -24,17 -40,17 -15,0 -29,-7 -40,-17 -10,-10 -16,-24 -16,-39 0,-10 2,-19 6,-27zm-302 -62l1 0 1 0 2 -1 41 -23 127 0c2,0 3,0 4,-1 1,-1 1,-3 1,-4 0,-1 0,-3 -1,-4 -1,-1 -2,-1 -4,-1l-129 0 -1 0 -1 0 -35 20 0 -125c0,-7 3,-14 8,-19 5,-5 12,-8 19,-8l53 0c1,0 3,0 3,-1 1,-1 2,-3 2,-4 0,-1 -1,-3 -1,-4 -1,-1 -3,-1 -4,-1l-53 0c-10,0 -19,4 -26,11 -7,7 -11,16 -11,26l0 134c0,1 0,2 0,2 1,1 2,2 2,2l2 1zm350 -31c1,0 1,0 2,0l1 0 1 0c1,0 2,-1 2,-2 1,-1 1,-2 1,-3l0 -164c0,-11 -4,-20 -11,-27 -6,-7 -16,-11 -26,-11l-144 0c-11,0 -20,4 -27,11 -6,7 -11,16 -11,27l0 77c0,10 5,20 11,26 7,7 16,11 27,11l124 0 48 54c1,0 1,1 2,1zm-193 -189c5,-5 11,-8 19,-8l144 0c7,0 14,3 19,8 5,5 8,12 8,20l0 151 -41 -45c0,-1 -1,-1 -2,-1 0,-1 -1,-1 -2,-1l-126 0c-8,0 -14,-3 -19,-8 -5,-5 -8,-12 -8,-19l0 -77c0,-8 3,-15 8,-20zm-101 110l27 0c1,0 3,0 4,-1 0,-1 1,-3 1,-4 0,-1 -1,-3 -1,-4 -1,-1 -3,-1 -4,-1l-27 0c-1,0 -3,0 -4,1 -1,1 -1,3 -1,4 0,1 0,3 1,4 1,1 3,1 4,1zm177 -61l61 0c1,0 3,0 4,-1 1,-1 1,-2 1,-4 0,-1 0,-3 -1,-4 -1,0 -2,-1 -4,-1l-61 0c-2,0 -3,1 -4,1 -1,1 -1,3 -1,4 0,2 0,3 1,4 1,1 2,1 4,1z"/>
  </g>
 </g>
</svg>
