<?xml version="1.0" encoding="UTF-8"?>
<!DOCTYPE svg PUBLIC "-//W3C//DTD SVG 1.1//EN" "http://www.w3.org/Graphics/SVG/1.1/DTD/svg11.dtd">
<!-- Creator: CorelDRAW X7 -->
<svg xmlns="http://www.w3.org/2000/svg" xml:space="preserve" width="706px" height="836px" version="1.1" style="shape-rendering:geometricPrecision; text-rendering:geometricPrecision; image-rendering:optimizeQuality; fill-rule:evenodd; clip-rule:evenodd"
viewBox="0 0 706 836"
 xmlns:xlink="http://www.w3.org/1999/xlink">
 <defs>
  <style type="text/css">
   <![CDATA[
    .fil0 {fill:#FEFEFE;fill-rule:nonzero}
    .fil1 {fill:#D02124;fill-rule:nonzero}
   ]]>
  </style>
 </defs>
 <g id="Слой_x0020_1">
  <metadata id="CorelCorpID_0Corel-Layer"/>
  <g id="_829957552">
   <path class="fil0" d="M2373 1020c0,0 1,0 1,-1l0 -7 33 0 0 7c0,1 0,1 0,1 1,0 1,0 1,-1l0 -8c0,-1 0,-1 -1,-1l-34 0c-1,0 -1,0 -1,1l0 8c0,1 0,1 1,1z"/>
   <path class="fil0" d="M2408 1042l0 -11c0,0 0,0 -1,0 0,0 0,0 0,0l0 11 -3 0 0 -13 7 0c0,0 0,0 0,-1l0 -5c0,-1 0,-1 0,-1l-7 0 0 -3c0,0 -1,-1 -1,-1l-26 0c0,0 -1,1 -1,1l0 3 -7 0c0,0 0,0 0,1l0 5c0,1 0,1 0,1l7 0 0 13 -2 0 0 -11c0,0 -1,0 -1,0 -1,0 -1,0 -1,0l0 11c-2,0 -4,2 -4,5l0 9c0,0 0,0 1,0l0 0 0 5c0,1 1,1 1,1l7 0c1,0 1,0 1,-1l0 -2c0,-1 0,-1 -1,-1 0,0 -1,0 -1,1l0 1 -5 0 0 -4 38 0 0 4 -5 0 0 -1c0,-1 -1,-1 -1,-1 0,0 -1,0 -1,1l0 2c0,1 1,1 1,1l7 0c1,0 1,0 1,-1l0 -5 0 0c1,0 1,0 1,0l0 -9c0,-3 -2,-5 -4,-5zm-1 2c2,0 3,1 3,3l0 3 -6 0 0 -6 3 0zm3 11l-40 0 0 -3 40 0 0 3zm-32 -26l24 0 0 21 -24 0 0 -21zm32 -2l-2 0 0 -4 2 0 0 4zm-3 -4l0 4 -3 0 0 -4 3 0zm-5 4l-11 0 0 -7 11 0 0 7zm-24 -7l11 0 0 7 -11 0 0 -7zm-2 7l-2 0 0 -4 2 0 0 4zm-6 -4l2 0 0 4 -2 0 0 -4zm3 21l3 0 0 6 -6 0 0 -3c0,-2 1,-3 3,-3z"/>
   <path class="fil0" d="M2380 1039l20 0c0,0 1,-1 1,-1 0,-3 -3,-5 -5,-5l-12 0c-2,0 -4,2 -4,5 0,0 0,1 0,1zm4 -4l12 0c1,0 2,1 3,2l-18 0c1,-1 2,-2 3,-2z"/>
   <path class="fil0" d="M2400 1040l-20 0c0,0 0,1 0,1 0,1 0,1 0,1l20 0c0,0 1,0 1,-1 0,0 -1,-1 -1,-1z"/>
   <path class="fil0" d="M2400 1044l-20 0c0,0 0,0 0,0 0,1 0,1 0,1l20 0c0,0 1,0 1,-1 0,0 -1,0 -1,0z"/>
   <path class="fil0" d="M2400 1047l-20 0c0,0 0,0 0,1 0,0 0,1 0,1l20 0c0,0 1,-1 1,-1 0,-1 -1,-1 -1,-1z"/>
  </g>
  <g id="_829987696">
   <path class="fil1" d="M702 699l0 -437c0,-8 -15,-52 -24,-80l-7 -21c-1,-2 -2,-3 -4,-4 -1,-2 -3,-2 -5,-2 -2,0 -4,1 -6,2 -1,1 -2,2 -3,4l-7 21c-10,28 -24,72 -24,80l0 478c0,9 3,17 9,23 6,5 14,9 23,9l15 0c9,0 18,-4 23,-9 6,-6 10,-14 10,-23l0 -41zm-36 -492l14 46 -37 0 19 -58 4 12zm-22 65l39 0 0 417 -43 0 0 -417 4 0zm39 468c0,4 -1,7 -4,10 -2,2 -6,4 -10,4l-15 0c-4,0 -7,-2 -10,-4 -2,-3 -4,-6 -4,-10l0 -32 43 0 0 32z"/>
   <g>
    <path class="fil1" d="M519 122l-26 0c-3,0 -5,1 -7,2 -1,2 -2,4 -2,7 0,2 1,5 2,6 2,2 4,3 7,3l26 0c9,0 17,3 23,9 5,6 9,14 9,22l0 604c0,9 -4,16 -9,22 -6,6 -14,9 -23,9l-467 0c-9,0 -17,-3 -22,-9 -6,-6 -10,-13 -10,-22l0 -604c0,-8 4,-16 10,-22 5,-6 13,-9 22,-9l26 0c3,0 5,-1 7,-3 2,-1 3,-4 3,-6 0,-3 -1,-5 -3,-7 -2,-1 -4,-2 -7,-2l-26 0c-14,0 -26,5 -35,14 -10,9 -15,21 -15,35l0 604c0,14 5,26 15,35 9,9 21,14 35,14l467 0c14,0 27,-5 36,-14 9,-9 14,-21 14,-35l0 -604c0,-14 -5,-26 -14,-35 -9,-9 -22,-14 -36,-14z"/>
    <path class="fil1" d="M422 617l-273 0c-3,0 -5,1 -7,3 -1,2 -2,4 -2,7 0,2 1,4 2,6 2,2 4,3 7,3l273 0c3,0 5,-1 7,-3 2,-2 3,-4 3,-6 0,-3 -1,-5 -3,-7 -2,-2 -4,-3 -7,-3z"/>
    <path class="fil1" d="M286 670l-137 0c-3,0 -5,1 -7,3 -1,1 -2,3 -2,6 0,2 1,5 2,6 2,2 4,3 7,3l137 0c2,0 5,-1 6,-3 2,-1 3,-4 3,-6 0,-3 -1,-5 -3,-6 -1,-2 -4,-3 -6,-3z"/>
    <path class="fil1" d="M55 183l0 580c0,2 1,5 3,6 1,2 4,3 6,3l443 0c3,0 5,-1 7,-3 1,-1 3,-4 3,-6l0 -580c0,-2 -2,-5 -3,-6 -2,-2 -4,-3 -7,-3l-58 0 0 -43c0,-14 -5,-26 -14,-35 -9,-9 -22,-15 -36,-15l-34 0 0 -3c-4,-19 -13,-36 -28,-48 -14,-11 -32,-19 -51,-19 -20,0 -38,8 -52,19 -14,12 -24,29 -27,48l-1 3 -34 0c-14,0 -26,6 -35,15 -9,9 -15,21 -15,35l0 43 -58 0c-2,0 -5,1 -6,3 -2,1 -3,4 -3,6zm86 -52c0,-9 3,-17 9,-22 5,-6 13,-9 22,-9l43 0c3,0 5,-1 7,-3 1,-2 2,-4 2,-7 0,-16 7,-31 18,-42 11,-11 27,-18 44,-18 17,0 32,7 43,18 11,11 18,26 18,42 0,3 1,5 3,7 1,2 4,3 6,3l43 0c9,0 17,3 23,9 5,5 9,13 9,22l0 95 -290 0 0 -95zm-64 61l45 0 0 44c0,2 1,4 3,6 1,2 4,3 6,3l309 0c3,0 5,-1 7,-3 1,-2 2,-4 2,-6l0 -44 49 0 0 562 -425 0 0 -562 4 0z"/>
    <path class="fil1" d="M286 73c-3,0 -5,1 -7,2 -2,2 -3,4 -3,7l0 17c0,3 1,5 3,7 2,1 4,2 7,2 2,0 5,-1 6,-2 2,-2 3,-4 3,-7l0 -17c0,-3 -1,-5 -3,-7 -1,-1 -4,-2 -6,-2z"/>
    <path class="fil1" d="M422 310l-17 0c-3,0 -5,1 -7,3 -1,2 -2,4 -2,7 0,2 1,4 2,6 2,2 4,3 7,3l8 0 0 166 -8 0c-3,0 -5,1 -7,3 -1,1 -2,4 -2,6 0,3 1,5 2,7 2,1 4,2 7,2l17 0c3,0 5,-1 7,-2 2,-2 3,-4 3,-7l0 -184c0,-3 -1,-5 -3,-7 -2,-2 -4,-3 -7,-3z"/>
    <path class="fil1" d="M149 583l203 0c2,0 5,-1 6,-2 2,-2 3,-4 3,-7l0 -17c0,-3 -1,-5 -3,-7 -1,-1 -4,-2 -6,-2 -3,0 -5,1 -7,2 -1,2 -2,4 -2,7l0 8 -185 0 0 -8c0,-3 -1,-5 -3,-7 -1,-1 -4,-2 -6,-2 -3,0 -5,1 -7,2 -1,2 -2,4 -2,7l0 17c0,3 1,5 2,7 2,1 4,2 7,2z"/>
    <path class="fil1" d="M149 513l203 0c2,0 5,-1 6,-2 2,-2 3,-4 3,-7l0 -184c0,-3 -1,-5 -3,-7 -1,-2 -4,-3 -6,-3l-203 0c-3,0 -5,1 -7,3 -1,2 -2,4 -2,7l0 35c0,2 1,4 2,6 2,2 4,3 7,3 2,0 5,-1 6,-3 2,-2 3,-4 3,-6l0 -26 185 0 0 166 -185 0 0 -88c0,-3 -1,-5 -3,-7 -1,-1 -4,-2 -6,-2 -3,0 -5,1 -7,2 -1,2 -2,4 -2,7l0 97c0,3 1,5 2,7 2,1 4,2 7,2z"/>
   </g>
  </g>
 </g>
</svg>
