<?xml version="1.0" encoding="UTF-8"?>
<!DOCTYPE svg PUBLIC "-//W3C//DTD SVG 1.1//EN" "http://www.w3.org/Graphics/SVG/1.1/DTD/svg11.dtd">
<!-- Creator: CorelDRAW X7 -->
<svg xmlns="http://www.w3.org/2000/svg" xml:space="preserve" width="640px" height="540px" version="1.1" style="shape-rendering:geometricPrecision; text-rendering:geometricPrecision; image-rendering:optimizeQuality; fill-rule:evenodd; clip-rule:evenodd"
viewBox="0 0 640 540"
 xmlns:xlink="http://www.w3.org/1999/xlink">
 <defs>
  <style type="text/css">
   <![CDATA[
    .fil0 {fill:#D02124;fill-rule:nonzero}
   ]]>
  </style>
 </defs>
 <g id="Слой_x0020_1">
  <metadata id="CorelCorpID_0Corel-Layer"/>
  <g id="_1166208496">
   <path class="fil0" d="M564 13l-480 0c-4,0 -7,2 -9,4 -3,3 -4,6 -4,10l0 319c0,4 1,7 4,10 2,2 5,4 9,4l480 0c3,0 7,-2 9,-4 2,-3 4,-6 4,-10l0 -319c0,-4 -2,-7 -4,-10 -2,-2 -6,-4 -9,-4zm-480 -13l480 0c7,0 14,3 19,8 4,5 7,11 7,19l0 319c0,8 -3,15 -7,19 -5,5 -12,8 -19,8l-480 0c-7,0 -14,-3 -19,-8 -5,-4 -8,-11 -8,-19l0 -319c0,-8 3,-14 8,-19 5,-5 12,-8 19,-8zm460 333l-447 0 0 -293 453 0 0 293 -6 0zm-433 -13l426 0 0 -267 -426 0 0 267z"/>
   <path class="fil0" d="M164 120l60 0c4,0 7,-2 9,-4 3,-2 4,-6 4,-9 0,-4 -1,-7 -4,-10 -2,-2 -5,-4 -9,-4l-60 0c-4,0 -7,2 -9,4 -3,3 -4,6 -4,10 0,3 1,7 4,9 2,2 5,4 9,4zm60 13l-60 0c-7,0 -14,-3 -19,-7 -5,-5 -8,-12 -8,-19 0,-8 3,-14 8,-19 5,-5 12,-8 19,-8l60 0c7,0 14,3 19,8 5,5 8,11 8,19 0,7 -3,14 -8,19 -5,4 -12,7 -19,7z"/>
   <path class="fil0" d="M164 200l60 0c4,0 7,-2 9,-4 3,-2 4,-6 4,-9 0,-4 -1,-7 -4,-10 -2,-2 -5,-4 -9,-4l-60 0c-4,0 -7,2 -9,4 -3,3 -4,6 -4,10 0,3 1,7 4,9 2,2 5,4 9,4zm60 13l-60 0c-7,0 -14,-3 -19,-7 -5,-5 -8,-12 -8,-19 0,-8 3,-14 8,-19 5,-5 12,-8 19,-8l60 0c7,0 14,3 19,8 5,5 8,11 8,19 0,7 -3,14 -8,19 -5,4 -12,7 -19,7z"/>
   <path class="fil0" d="M404 240l27 0 0 47c0,3 1,6 3,9 3,2 6,4 10,4 3,0 7,-2 9,-4 2,-3 4,-6 4,-9l0 -47 27 0c2,0 5,-1 7,-2 2,-1 3,-3 4,-5 2,-2 2,-5 2,-7 0,-2 -1,-5 -2,-7l-40 -60c-1,-1 -2,-2 -3,-3 -3,-1 -5,-2 -8,-2 -3,0 -6,1 -8,2 -1,1 -2,2 -3,3l-40 60c-2,2 -2,5 -2,7 -1,2 0,5 1,7 1,2 3,4 5,5 2,1 4,2 7,2zm13 13l-13 0c-5,0 -10,-1 -14,-4 -4,-2 -7,-5 -10,-10 -2,-4 -3,-9 -3,-14 0,-4 2,-9 5,-13l40 -60c1,-3 4,-5 6,-7 5,-3 10,-5 16,-5 5,0 11,2 15,5 3,2 5,4 7,7l40 60c3,4 4,9 4,13 1,5 0,10 -3,14 -2,4 -5,8 -10,10 -4,3 -8,4 -13,4l-13 0 0 34c0,7 -3,14 -8,18 -5,5 -12,8 -19,8 -8,0 -14,-3 -19,-8 -5,-4 -8,-11 -8,-18l0 -34z"/>
   <path class="fil0" d="M617 539l-40 0c-7,0 -14,-3 -19,-8 -5,-4 -8,-11 -8,-18l0 -34 -180 0 0 34c0,7 -3,14 -7,18 -5,5 -12,8 -19,8l-40 0c-7,0 -14,-3 -19,-8 -5,-4 -8,-11 -8,-18l0 -34 -180 0 0 34c0,7 -3,14 -8,18 -4,5 -11,8 -18,8l-40 0c-8,0 -14,-3 -19,-8 -5,-4 -8,-11 -8,-18l0 -87c0,-7 3,-14 8,-18 5,-5 11,-8 19,-8l586 0c7,0 14,3 19,8 5,4 8,11 8,18l0 87c0,7 -3,14 -8,18 -5,5 -12,8 -19,8zm-40 -13l40 0c4,0 7,-2 9,-4 3,-3 4,-6 4,-9l0 -87c0,-3 -1,-7 -4,-9 -2,-2 -5,-4 -9,-4l-586 0c-4,0 -7,2 -10,4 -2,2 -3,6 -3,9l0 87c0,3 1,7 3,9 3,2 6,4 10,4l40 0c3,0 6,-2 9,-4 2,-2 4,-6 4,-9l0 -47 207 0 0 47c0,3 1,6 4,9 2,2 5,4 9,4l40 0c3,0 7,-2 9,-4 2,-3 4,-6 4,-9l0 -47 207 0 0 47c0,3 1,6 4,9 2,2 6,4 9,4z"/>
  </g>
 </g>
</svg>
