<?xml version="1.0" encoding="UTF-8"?>
<!DOCTYPE svg PUBLIC "-//W3C//DTD SVG 1.1//EN" "http://www.w3.org/Graphics/SVG/1.1/DTD/svg11.dtd">
<!-- Creator: CorelDRAW X7 -->
<svg xmlns="http://www.w3.org/2000/svg" xml:space="preserve" width="540px" height="540px" version="1.1" style="shape-rendering:geometricPrecision; text-rendering:geometricPrecision; image-rendering:optimizeQuality; fill-rule:evenodd; clip-rule:evenodd"
viewBox="0 0 540 540"
 xmlns:xlink="http://www.w3.org/1999/xlink">
 <defs>
  <style type="text/css">
   <![CDATA[
    .fil0 {fill:#D02124;fill-rule:nonzero}
   ]]>
  </style>
 </defs>
 <g id="Слой_x0020_1">
  <metadata id="CorelCorpID_0Corel-Layer"/>
  <g id="_1171780512">
   <path class="fil0" d="M533 4l-519 0c-1,0 -3,1 -4,2 -1,1 -2,3 -2,4l0 519c0,2 1,3 2,4 1,1 3,2 4,2l441 0c2,0 3,-1 4,-2 2,-1 2,-2 2,-4 0,-2 0,-3 -2,-5 -1,-1 -2,-1 -4,-1l-434 0 0 -506 506 0 0 512c0,2 0,3 1,4 2,1 3,2 5,2 1,0 3,-1 4,-2 1,-1 2,-2 2,-4l0 -519c0,-1 -1,-3 -2,-4 -1,-1 -3,-2 -4,-2z"/>
   <path class="fil0" d="M456 150l-257 0c-2,0 -3,0 -4,2 -1,1 -2,2 -2,4 0,2 1,3 2,4 1,1 2,2 4,2l257 0c1,0 3,-1 4,-2 1,-1 2,-2 2,-4 0,-2 -1,-3 -2,-4 -1,-2 -3,-2 -4,-2z"/>
   <path class="fil0" d="M456 263l-257 0c-2,0 -3,1 -4,2 -1,1 -2,3 -2,5 0,1 1,3 2,4 1,1 2,2 4,2l257 0c1,0 3,-1 4,-2 1,-1 2,-3 2,-4 0,-2 -1,-4 -2,-5 -1,-1 -3,-2 -4,-2z"/>
   <g>
    <path class="fil0" d="M124 119c-10,0 -20,4 -26,11 -7,6 -11,16 -11,26 0,10 4,20 11,26 6,7 16,11 26,11 10,0 20,-4 26,-11 7,-6 11,-16 11,-26 0,-10 -4,-20 -11,-26 -6,-7 -16,-11 -26,-11zm0 62c-7,0 -13,-3 -18,-7 -4,-5 -7,-11 -7,-18 0,-7 3,-13 7,-18 5,-4 11,-7 18,-7 7,0 13,3 18,7 4,5 7,11 7,18 0,7 -3,13 -7,18 -5,4 -11,7 -18,7z"/>
    <path class="fil0" d="M124 232c-2,0 -3,1 -4,2 -1,1 -2,3 -2,4 0,2 1,4 2,5 1,1 2,2 4,2 7,0 13,2 18,7 4,5 7,11 7,18 0,6 -3,13 -7,17 -5,5 -11,8 -18,8 -7,0 -13,-3 -18,-8 -4,-4 -7,-11 -7,-17 0,-2 -1,-4 -2,-5 -1,-1 -2,-2 -4,-2 -2,0 -3,1 -4,2 -2,1 -2,3 -2,5 0,10 4,19 11,26 6,7 16,11 26,11 10,0 20,-4 26,-11 7,-7 11,-16 11,-26 0,-11 -4,-20 -11,-27 -6,-7 -16,-11 -26,-11z"/>
    <path class="fil0" d="M124 346c-10,0 -20,4 -26,11 -7,7 -11,16 -11,26 0,11 4,20 11,27 6,6 16,11 26,11 10,0 20,-5 26,-11 7,-7 11,-16 11,-27 0,-10 -4,-19 -11,-26 -6,-7 -16,-11 -26,-11zm0 62c-7,0 -13,-3 -18,-7 -4,-5 -7,-11 -7,-18 0,-7 3,-13 7,-17 5,-5 11,-8 18,-8 7,0 13,3 18,8 4,4 7,10 7,17 0,7 -3,13 -7,18 -5,4 -11,7 -18,7z"/>
   </g>
   <path class="fil0" d="M456 377l-257 0c-2,0 -3,1 -4,2 -1,1 -2,3 -2,4 0,2 1,4 2,5 1,1 2,1 4,1l257 0c1,0 3,0 4,-1 1,-1 2,-3 2,-5 0,-1 -1,-3 -2,-4 -1,-1 -3,-2 -4,-2z"/>
  </g>
 </g>
</svg>
