<?xml version="1.0" encoding="UTF-8"?>
<!DOCTYPE svg PUBLIC "-//W3C//DTD SVG 1.1//EN" "http://www.w3.org/Graphics/SVG/1.1/DTD/svg11.dtd">
<!-- Creator: CorelDRAW X7 -->
<svg xmlns="http://www.w3.org/2000/svg" xml:space="preserve" width="640px" height="691px" version="1.1" style="shape-rendering:geometricPrecision; text-rendering:geometricPrecision; image-rendering:optimizeQuality; fill-rule:evenodd; clip-rule:evenodd"
viewBox="0 0 640 691"
 xmlns:xlink="http://www.w3.org/1999/xlink">
 <defs>
  <style type="text/css">
   <![CDATA[
    .fil0 {fill:#D02124;fill-rule:nonzero}
   ]]>
  </style>
 </defs>
 <g id="Слой_x0020_1">
  <metadata id="CorelCorpID_0Corel-Layer"/>
  <path class="fil0" d="M566 494l-112 -27 0 -1c-5,-7 -15,-17 -24,-25 -4,-4 -7,-7 -10,-10l-2 -2 4 -4c9,-9 17,-19 24,-31 6,-11 12,-23 17,-36 5,-13 9,-26 11,-40 3,-14 4,-28 4,-42 0,-6 0,-11 -1,-16l0 -8c-1,-4 -1,-7 -1,-10l0 -1c0,-2 2,-9 4,-20 2,-11 4,-26 6,-43 1,-9 2,-19 3,-28 1,-10 1,-20 1,-30 0,-10 -1,-20 -4,-29 -3,-10 -7,-19 -12,-27 -5,-7 -11,-14 -18,-20 -7,-6 -14,-10 -23,-13 -11,-4 -21,-8 -31,-11 -10,-3 -20,-5 -30,-7 -9,-2 -19,-4 -28,-5 -9,-1 -18,-1 -27,-1 -8,0 -19,0 -32,2 -10,2 -20,4 -30,7 -9,3 -17,6 -26,11 -7,4 -14,9 -20,14l-2 2 -7 0c-4,0 -9,0 -13,1 -4,1 -9,2 -13,4 -4,2 -8,4 -11,7 -4,2 -7,5 -10,9 -3,3 -6,6 -8,10 -3,4 -5,8 -6,12 -2,5 -3,9 -3,13 -1,5 -1,9 -1,14 1,8 2,18 3,27 1,10 2,20 3,31 3,21 6,42 9,64l2 13c2,10 3,21 4,29l0 0c0,14 1,28 4,42 2,13 6,27 11,39 4,13 10,25 17,36 7,12 15,22 24,31l4 4 -2 2c-3,3 -7,7 -11,10 -8,8 -18,17 -23,25l-1 1 -111 27c-10,3 -19,7 -28,12 -8,6 -15,12 -21,20 -6,8 -11,17 -14,26 -3,9 -5,19 -5,29l0 78c0,4 1,8 2,12 2,3 4,6 7,9 2,3 5,5 9,6 3,2 7,3 11,3l575 0c4,0 8,-1 12,-3 3,-1 6,-3 9,-6 5,-5 9,-13 9,-21l0 -78c0,-10 -2,-20 -5,-29 -3,-9 -8,-18 -14,-26 -6,-8 -13,-14 -22,-20 -8,-5 -17,-9 -27,-12zm29 35l-57 58c-4,3 -7,7 -10,11 -3,5 -5,9 -7,14 -2,4 -3,9 -4,14 -1,5 -2,10 -2,15l0 37 -157 0 -12 -79 2 -2c2,-1 3,-3 5,-4 1,-2 2,-4 3,-6 0,-2 1,-3 2,-5 0,-2 0,-4 0,-7l0 -14 17 12 2 1 3 1 2 0 3 1 2 -1 2 0c1,0 2,-1 3,-1 1,-1 2,-1 3,-2 1,-1 2,-1 3,-2 0,-1 1,-2 2,-3l50 -91 114 29c2,1 5,1 8,2 3,1 5,3 8,4 3,1 5,3 8,4 2,2 4,4 7,6l5 4 -5 4zm-275 7l27 18 0 21c0,3 0,5 -1,8 -1,2 -2,4 -4,6 -2,1 -4,3 -6,4 -2,1 -5,1 -7,1l-24 0c-3,0 -5,0 -7,-1 -3,-1 -5,-3 -6,-4 -2,-2 -3,-4 -4,-6 -1,-3 -2,-5 -2,-8l0 -21 31 -20 3 2zm141 -265l-31 0 -2 -4c0,-3 -2,-6 -4,-9 -2,-2 -4,-4 -6,-6 -3,-2 -5,-3 -8,-4 -3,-1 -6,-1 -9,-1l-36 0c-3,0 -5,0 -8,1 -2,0 -4,1 -7,2 -2,2 -4,3 -6,5 -1,1 -3,3 -4,6l-3 5 -5 -3c-1,-1 -3,-2 -4,-2 -1,-1 -2,-1 -3,-1 -2,-1 -3,-1 -4,-1 -1,0 -3,0 -4,0 -2,0 -3,0 -4,0 -1,0 -3,0 -4,1 -1,0 -2,0 -4,1 -1,0 -2,1 -3,2l-5 3 -3 -5c-1,-3 -3,-4 -5,-6 -2,-2 -4,-3 -6,-5 -2,-1 -4,-2 -7,-3 -2,0 -5,0 -7,0l-36 0c-3,0 -6,0 -9,1 -3,1 -6,2 -8,4 -3,2 -5,4 -7,6 -1,3 -3,6 -4,9l-1 4 -38 0 2 -8c1,-8 5,-15 9,-22 4,-7 9,-14 14,-21l7 -10c3,-4 5,-7 7,-10 2,-4 3,-7 5,-11 1,-3 3,-7 3,-11l1 -5 5 0c27,0 53,1 77,1 24,1 46,2 65,4 20,1 38,3 52,6 15,2 27,5 36,8l2 1 1 2c3,6 4,11 6,17 2,6 3,11 4,17 2,6 3,12 3,18 1,5 2,11 2,17l0 7 -6 0zm-42 5l0 12c0,2 0,5 -1,7 -1,2 -2,4 -4,6 -2,2 -4,3 -6,4 -2,1 -5,1 -7,1l-36 0c-3,0 -5,0 -7,-1 -3,-1 -5,-2 -6,-4 -2,-2 -4,-4 -4,-6 -1,-2 -2,-5 -2,-7l0 -12c0,-3 1,-5 2,-7 1,-3 2,-5 4,-6 1,-2 3,-3 6,-4 2,-1 4,-2 7,-2l36 0c2,0 5,1 7,2 2,1 4,2 6,4 2,1 3,3 4,6 1,2 1,4 1,7zm-205 0c0,-3 1,-5 2,-7 1,-3 2,-5 4,-6 1,-2 4,-3 6,-4 2,-1 4,-2 7,-2l36 0c2,0 5,1 7,2 2,1 4,2 6,4 2,1 3,3 4,6 1,2 2,4 2,7l0 12c0,2 -1,5 -2,7 -1,2 -2,4 -4,6 -3,3 -8,5 -13,5l-36 0c-3,0 -5,0 -7,-1 -2,-1 -5,-2 -6,-4 -2,-2 -3,-4 -4,-6 -1,-2 -2,-5 -2,-7l0 -12zm-10 11l0 1c0,4 0,8 2,11 1,4 4,7 6,10 3,2 6,4 10,6 3,1 7,2 11,2l36 0c4,0 8,-1 11,-2 4,-2 7,-4 10,-6 2,-3 5,-6 6,-10 1,-3 2,-7 2,-11 0,-3 1,-5 2,-7 1,-3 2,-5 4,-6 1,-2 3,-3 6,-4 2,-1 4,-2 7,-2 2,0 5,1 7,2 2,1 4,2 6,4 2,1 3,3 4,6 1,2 1,4 1,7 0,4 1,8 3,11 1,4 3,7 6,10 3,2 6,4 10,6 3,1 7,2 11,2l36 0c4,0 7,-1 11,-2 3,-2 7,-4 9,-6 3,-3 5,-6 7,-10 1,-3 2,-7 2,-11l0 -7 37 0 0 6c-1,24 -6,47 -14,68 -8,21 -19,40 -33,56 -14,16 -30,29 -48,38 -17,9 -36,13 -55,13 -20,0 -39,-4 -56,-13 -18,-9 -34,-22 -48,-38 -13,-16 -24,-35 -33,-56 -7,-21 -12,-44 -13,-68l-1 -6 38 0 0 6zm113 186c3,0 6,0 9,0 3,-1 6,-1 9,-1 3,-1 6,-1 9,-2 3,-1 6,-1 9,-2l22 -6 -58 58 -59 -58 22 6c3,1 6,1 9,2 3,1 6,1 9,2 3,0 6,0 10,1 3,0 6,0 9,0zm-12 132l31 0 11 73 -60 0 10 -73 8 0zm85 -43l0 1c-2,1 -2,1 -4,2 -1,0 -2,0 -3,0 -1,0 -1,-1 -1,-1 -9,-4 -25,-15 -38,-25 -6,-4 -12,-8 -16,-10l-3 -2 88 -88 29 30 -52 93zm-230 -491c3,-3 6,-5 9,-7 3,-3 6,-4 10,-6 3,-1 7,-3 10,-3 4,-1 8,-1 11,-1l9 0 1 -1 1 0 1 0 1 -1c6,-6 12,-11 20,-15 7,-4 16,-8 24,-10 10,-4 20,-6 29,-7 12,-2 24,-2 31,-2 8,0 17,0 26,1 9,1 18,2 28,4 9,2 19,5 28,8 10,2 20,6 30,10 8,2 15,6 21,12 6,5 11,11 16,18 4,7 8,15 10,23 2,8 3,17 3,26 0,6 0,12 0,18 0,7 -1,13 -1,19 -1,5 -1,11 -2,17l-2 17 -3 22 -11 -26 0 -1 -1 -1 -1 -1 0 0c-11,-5 -27,-8 -45,-11 -20,-3 -45,-6 -70,-7 -24,-2 -48,-3 -71,-3 -23,0 -45,0 -63,0 -1,0 -1,0 -2,0 -1,0 -1,1 -2,1 0,1 -1,1 -1,2 0,1 0,1 0,2 0,8 -3,16 -7,23 -4,8 -9,15 -15,23 -7,10 -13,20 -20,30l-6 -47 -4 -30c-2,-10 -3,-20 -4,-29 -1,-9 -1,-18 -2,-26 0,-4 0,-8 0,-11 1,-4 2,-8 3,-11 1,-4 3,-7 5,-10 2,-3 4,-6 6,-9zm65 372l83 84 -16 11c-14,9 -33,23 -40,26 0,0 -1,1 -2,1 0,0 -1,0 -2,0 -1,0 -2,-1 -2,-1l0 0c-1,0 -1,-1 -2,-1 -4,-5 -26,-45 -40,-72l-12 -22 29 -30 4 4zm-155 62l114 -29c17,30 33,61 50,91 1,1 1,2 2,3 1,1 2,1 3,2 1,1 2,1 3,2 1,0 2,1 3,1l2 0 2 1 3 -1 2 0 2 -1 3 -1 17 -12 0 14c0,3 0,5 0,6 1,3 1,4 2,6 1,2 2,4 3,6 1,1 3,3 4,4l2 2 0 2c-3,22 -6,43 -9,64l-2 13 -158 0 0 -37c0,-5 0,-10 -1,-15 -1,-5 -2,-10 -4,-14 -2,-5 -5,-9 -7,-14 -3,-4 -7,-8 -10,-11l-62 -62 5 -4c2,-2 5,-4 7,-6 2,-1 5,-3 8,-4 2,-1 5,-3 8,-4 2,-1 5,-1 8,-2zm-59 154l0 -78c0,-4 0,-7 0,-11 1,-4 2,-7 3,-11 1,-4 2,-7 4,-10 1,-4 3,-7 5,-10l4 -6 61 61c3,3 6,7 9,10 2,4 4,8 6,12 1,4 3,8 4,12 0,4 1,9 1,13l0 37 -79 0c-2,0 -5,-1 -7,-1 -2,-1 -4,-3 -6,-5 -2,-1 -3,-3 -4,-6 -1,-2 -1,-4 -1,-7zm612 0c0,3 0,5 -1,7 -1,3 -3,5 -4,6 -2,2 -4,4 -6,5 -3,0 -5,1 -8,1l-78 0 0 -37c0,-4 0,-9 1,-13 1,-4 2,-8 4,-12 2,-4 4,-8 6,-12 3,-3 5,-7 8,-10l62 -61 4 6c2,3 4,6 5,10 2,3 3,6 4,10 1,4 2,7 2,11 1,4 1,7 1,11l0 78z"/>
 </g>
</svg>
