<?xml version="1.0" encoding="UTF-8"?>
<!DOCTYPE svg PUBLIC "-//W3C//DTD SVG 1.1//EN" "http://www.w3.org/Graphics/SVG/1.1/DTD/svg11.dtd">
<!-- Creator: CorelDRAW X7 -->
<svg xmlns="http://www.w3.org/2000/svg" xml:space="preserve" width="137px" height="137px" version="1.1" style="shape-rendering:geometricPrecision; text-rendering:geometricPrecision; image-rendering:optimizeQuality; fill-rule:evenodd; clip-rule:evenodd"
viewBox="0 0 137 137"
 xmlns:xlink="http://www.w3.org/1999/xlink">
 <defs>
  <style type="text/css">
   <![CDATA[
    .fil0 {fill:#D02124}
   ]]>
  </style>
 </defs>
 <g id="Слой_x0020_1">
  <metadata id="CorelCorpID_0Corel-Layer"/>
  <path class="fil0" d="M67 0c38,0 69,31 69,68 0,16 -6,30 -14,41l-14 0c-1,0 -2,0 -2,0 -8,0 -11,-5 -11,-15 0,-19 0,-31 0,-49 0,-21 -45,-21 -45,-1l0 10 0 0c0,7 0,15 0,23 0,3 -1,4 -2,4 -2,0 -3,-1 -3,-4 0,-1 0,-1 0,-2 0,-11 0,-12 0,-23 0,-20 -7,-31 -24,-33 12,-11 28,-19 46,-19zm-51 29l1 -4c7,0 14,5 16,12l-3 1c-3,-6 -8,-9 -14,-9zm15 20l4 0 0 19 -4 0 0 -19zm0 31l4 -1c1,7 6,9 12,9l0 4c-7,0 -14,-4 -16,-12zm28 8l-2 -3c4,-4 3,-11 3,-17l4 0c0,7 1,14 -5,20zm5 -32l-4 0 0 -8 0 0 0 0 4 0 0 -2 0 6 0 0c0,1 0,3 0,4zm-4 -10l0 0 0 0 0 0 0 0zm0 0l0 0 0 0 0 0 0 0zm4 0l0 0 0 0 0 0 0 0 0 0 0 0zm15 -4l1 -4c9,3 7,11 7,19l-4 0c0,-6 2,-13 -4,-15zm4 26l4 0c0,7 0,13 0,20l-4 0c0,-7 0,-13 0,-20zm1 32l4 -1c1,6 2,12 8,15l-2 3c-7,-4 -9,-10 -10,-17zm23 19l-1 -4 1 0 0 0 0 0 0 0 0 0 0 0 0 0 0 0 0 0 0 0 0 0 0 0 0 0 0 0 1 0 0 0 0 0 0 0 0 0 0 0 0 0 0 0 0 0 0 0 1 0 -1 0 1 0 0 0 0 0 0 0c5,0 3,0 9,0l-5 4 -4 0 0 0 0 0 0 0 0 0 0 0 -1 0 0 0 0 0 0 0 0 0 0 0 0 0 0 0 0 0 0 0 0 0 0 0 -1 0 0 0 0 0 0 0 0 0 0 0 0 0 0 0 0 0 0 0 0 0 0 0 0 0 0 0zm0 5c-11,8 -25,13 -40,13 -37,0 -68,-31 -68,-69 0,-12 4,-24 10,-34l3 0c9,0 12,5 12,16 0,14 0,22 0,35 0,21 47,20 47,0 0,-8 0,-20 0,-28l0 0 0 -2c0,-1 0,-2 0,-2 0,-4 2,-4 3,-4 1,0 2,0 3,4 0,17 0,24 0,40 0,2 0,4 0,7 2,15 9,24 25,24 1,0 3,0 5,0z"/>
 </g>
</svg>
