<?xml version="1.0" encoding="UTF-8"?>
<!DOCTYPE svg PUBLIC "-//W3C//DTD SVG 1.1//EN" "http://www.w3.org/Graphics/SVG/1.1/DTD/svg11.dtd">
<!-- Creator: CorelDRAW X7 -->
<svg xmlns="http://www.w3.org/2000/svg" xml:space="preserve" width="61px" height="98px" version="1.1" style="shape-rendering:geometricPrecision; text-rendering:geometricPrecision; image-rendering:optimizeQuality; fill-rule:evenodd; clip-rule:evenodd"
viewBox="0 0 61 98"
 xmlns:xlink="http://www.w3.org/1999/xlink">
 <defs>
  <style type="text/css">
   <![CDATA[
    .fil0 {fill:#92241F;fill-rule:nonzero}
   ]]>
  </style>
 </defs>
 <g id="Слой_x0020_1">
  <metadata id="CorelCorpID_0Corel-Layer"/>
  <path class="fil0" d="M57 3c-2,-2 -4,-3 -7,-3l-38 0c-3,0 -5,1 -7,3 -2,2 -3,4 -3,7l0 77c0,3 1,5 3,7 2,2 4,3 7,3l38 0c3,0 5,-1 7,-3 2,-2 3,-4 3,-7l0 -77c0,-3 -1,-5 -3,-7zm-32 7l12 0c1,0 1,0 1,1 0,1 0,1 -1,1l-12 0c-1,0 -1,0 -1,-1 0,-1 0,-1 1,-1zm10 82c-1,1 -2,2 -4,2 -2,0 -3,-1 -4,-2 -1,-1 -2,-3 -2,-5 0,-1 1,-3 2,-4 1,-1 2,-2 4,-2 2,0 3,1 4,2 1,1 2,3 2,4 0,2 -1,4 -2,5zm18 -17c0,1 0,2 -1,2 0,0 -1,1 -2,1l-38 0c-1,0 -2,-1 -2,-1 -1,0 -1,-1 -1,-2l0 -53c0,-1 0,-2 1,-2 0,0 1,-1 2,-1l38 0c1,0 2,1 2,1 1,0 1,1 1,2l0 53z"/>
 </g>
</svg>
