<?xml version="1.0" encoding="UTF-8"?>
<!DOCTYPE svg PUBLIC "-//W3C//DTD SVG 1.1//EN" "http://www.w3.org/Graphics/SVG/1.1/DTD/svg11.dtd">
<!-- Creator: CorelDRAW X7 -->
<svg xmlns="http://www.w3.org/2000/svg" xml:space="preserve" width="62px" height="68px" version="1.1" style="shape-rendering:geometricPrecision; text-rendering:geometricPrecision; image-rendering:optimizeQuality; fill-rule:evenodd; clip-rule:evenodd"
viewBox="0 0 62 68"
 xmlns:xlink="http://www.w3.org/1999/xlink">
 <defs>
  <style type="text/css">
   <![CDATA[
    .fil0 {fill:#92241F;fill-rule:nonzero}
   ]]>
  </style>
 </defs>
 <g id="Слой_x0020_1">
  <metadata id="CorelCorpID_0Corel-Layer"/>
  <path class="fil0" d="M60 15l0 -12c0,-2 -1,-3 -2,-3l-30 0c-1,0 -2,1 -2,3l0 12 -1 0 0 42 7 0 0 4c0,1 -1,2 -2,2l-14 0c-1,0 -2,-1 -2,-1l0 -2 5 0c1,0 2,-1 2,-2l0 -44c0,-2 -1,-3 -2,-3l-15 0c-1,0 -2,1 -2,3l0 44c0,1 1,2 2,2l5 0 0 2c0,3 3,6 7,6l14 0c3,0 6,-3 6,-7l0 -4 24 0c1,0 2,-1 2,-3l0 -37c0,-1 -1,-2 -2,-2zm-26 30l-4 0c-1,0 -2,-1 -2,-2 0,-1 1,-2 2,-2l4 0c1,0 2,1 2,2 0,1 -1,2 -2,2zm0 -7l-4 0c-1,0 -2,-1 -2,-2 0,-1 1,-2 2,-2l4 0c1,0 2,1 2,2 0,1 -1,2 -2,2zm0 -8l-4 0c-1,0 -2,-1 -2,-2 0,-1 1,-1 2,-1l4 0c1,0 2,0 2,1 0,1 -1,2 -2,2zm11 15l-4 0c-1,0 -2,-1 -2,-2 0,-1 1,-2 2,-2l4 0c1,0 2,1 2,2 0,1 -1,2 -2,2zm0 -7l-4 0c-1,0 -2,-1 -2,-2 0,-1 1,-2 2,-2l4 0c1,0 2,1 2,2 0,1 -1,2 -2,2zm0 -8l-4 0c-1,0 -2,-1 -2,-2 0,-1 1,-1 2,-1l4 0c1,0 2,0 2,1 0,1 -1,2 -2,2zm-9 -18c-1,0 -2,-1 -2,-2 0,-1 1,-2 2,-2l14 0c1,0 2,1 2,2 0,1 -1,2 -2,2l-14 0zm20 33l-4 0c-1,0 -1,-1 -1,-2 0,-1 0,-2 1,-2l4 0c1,0 2,1 2,2 0,1 -1,2 -2,2zm0 -7l-4 0c-1,0 -1,-1 -1,-2 0,-1 0,-2 1,-2l4 0c1,0 2,1 2,2 0,1 -1,2 -2,2zm0 -8l-4 0c-1,0 -1,-1 -1,-2 0,-1 0,-1 1,-1l4 0c1,0 2,0 2,1 0,1 -1,2 -2,2z"/>
 </g>
</svg>
