<?xml version="1.0" encoding="UTF-8"?><!DOCTYPE svg PUBLIC "-//W3C//DTD SVG 1.1//EN" "http://www.w3.org/Graphics/SVG/1.1/DTD/svg11.dtd"><svg xmlns="http://www.w3.org/2000/svg" xmlns:xlink="http://www.w3.org/1999/xlink"><symbol viewBox="0 0 61 86" id="mark"><defs><style>.afil0{fill:#717170;fill-rule:nonzero}</style></defs><path class="afil0" d="M51 9C40-2 21-2 9 9c-5 6-8 14-8 23 0 7 2 14 6 19l23 34 24-34c9-12 8-31-3-42zM31 40c-6 0-10-5-10-10 0-6 4-10 10-10 5 0 9 4 9 10 0 5-4 10-9 10z" id="aСлой_x0020_1"/></symbol><symbol viewBox="0 0 61 98" id="mobile"><defs><style>.bfil0{fill:#92241f;fill-rule:nonzero}</style></defs><path class="bfil0" d="M57 3c-2-2-4-3-7-3H12C9 0 7 1 5 3s-3 4-3 7v77c0 3 1 5 3 7s4 3 7 3h38c3 0 5-1 7-3s3-4 3-7V10c0-3-1-5-3-7zm-32 7h12c1 0 1 0 1 1s0 1-1 1H25c-1 0-1 0-1-1s0-1 1-1zm10 82c-1 1-2 2-4 2s-3-1-4-2-2-3-2-5c0-1 1-3 2-4s2-2 4-2 3 1 4 2 2 3 2 4c0 2-1 4-2 5zm18-17c0 1 0 2-1 2 0 0-1 1-2 1H12c-1 0-2-1-2-1-1 0-1-1-1-2V22c0-1 0-2 1-2 0 0 1-1 2-1h38c1 0 2 1 2 1 1 0 1 1 1 2v53z" id="bСлой_x0020_1"/></symbol><symbol viewBox="0 0 62 68" id="telephone"><defs><style>.cfil0{fill:#92241f;fill-rule:nonzero}</style></defs><path class="cfil0" d="M60 15V3c0-2-1-3-2-3H28c-1 0-2 1-2 3v12h-1v42h7v4c0 1-1 2-2 2H16c-1 0-2-1-2-1v-2h5c1 0 2-1 2-2V14c0-2-1-3-2-3H4c-1 0-2 1-2 3v44c0 1 1 2 2 2h5v2c0 3 3 6 7 6h14c3 0 6-3 6-7v-4h24c1 0 2-1 2-3V17c0-1-1-2-2-2zM34 45h-4c-1 0-2-1-2-2s1-2 2-2h4c1 0 2 1 2 2s-1 2-2 2zm0-7h-4c-1 0-2-1-2-2s1-2 2-2h4c1 0 2 1 2 2s-1 2-2 2zm0-8h-4c-1 0-2-1-2-2s1-1 2-1h4c1 0 2 0 2 1s-1 2-2 2zm11 15h-4c-1 0-2-1-2-2s1-2 2-2h4c1 0 2 1 2 2s-1 2-2 2zm0-7h-4c-1 0-2-1-2-2s1-2 2-2h4c1 0 2 1 2 2s-1 2-2 2zm0-8h-4c-1 0-2-1-2-2s1-1 2-1h4c1 0 2 0 2 1s-1 2-2 2zm-9-18c-1 0-2-1-2-2s1-2 2-2h14c1 0 2 1 2 2s-1 2-2 2H36zm20 33h-4c-1 0-1-1-1-2s0-2 1-2h4c1 0 2 1 2 2s-1 2-2 2zm0-7h-4c-1 0-1-1-1-2s0-2 1-2h4c1 0 2 1 2 2s-1 2-2 2zm0-8h-4c-1 0-1-1-1-2s0-1 1-1h4c1 0 2 0 2 1s-1 2-2 2z" id="cСлой_x0020_1"/></symbol></svg>